<svg xmlns="http://www.w3.org/2000/svg" xmlns:xlink="http://www.w3.org/1999/xlink" width="100" zoomAndPan="magnify" viewBox="0 0 75.119995 83.04" height="100" preserveAspectRatio="xMidYMid meet" version="1.0"><defs><clipPath id="4ab509d947"><path d="M 2.1875 2.191406 L 71.871094 2.191406 L 71.871094 71.875 L 2.1875 71.875 Z M 2.1875 2.191406 " clip-rule="nonzero"/></clipPath></defs><g clip-path="url(#4ab509d947)"><path fill="#c6c6c6" d="M 65.902344 71.945312 L 8.226562 71.945312 C 4.890625 71.945312 2.1875 69.242188 2.1875 65.90625 L 2.1875 8.234375 C 2.1875 4.898438 4.890625 2.191406 8.226562 2.191406 L 65.902344 2.191406 C 69.234375 2.191406 71.941406 4.898438 71.941406 8.234375 L 71.941406 65.90625 C 71.941406 69.242188 69.234375 71.945312 65.902344 71.945312 " fill-opacity="1" fill-rule="nonzero"/></g><path fill="#ffffff" d="M 29.972656 49.085938 L 22.925781 35.476562 L 11.046875 44.039062 C 19.167969 49.90625 25.464844 56.433594 29.972656 63.605469 C 42.148438 49.222656 51.476562 38.53125 63.078125 31.769531 L 63.078125 10.535156 C 49.144531 23.265625 39.4375 35.085938 29.972656 49.085938 " fill-opacity="1" fill-rule="nonzero"/></svg>