<svg xmlns="http://www.w3.org/2000/svg" xmlns:xlink="http://www.w3.org/1999/xlink" width="1000" zoomAndPan="magnify" viewBox="0 0 750 112.499997" height="150" preserveAspectRatio="xMidYMid meet" version="1.0"><defs><g/><clipPath id="cff4d8f282"><path d="M 0.164062 0.699219 L 301.21875 0.699219 L 301.21875 83.304688 L 0.164062 83.304688 Z M 0.164062 0.699219 " clip-rule="nonzero"/></clipPath><clipPath id="41c0a79e09"><path d="M 21.070312 0.699219 L 280.199219 0.699219 C 291.746094 0.699219 301.105469 10.058594 301.105469 21.605469 L 301.105469 62.394531 C 301.105469 73.941406 291.746094 83.304688 280.199219 83.304688 L 21.070312 83.304688 C 9.523438 83.304688 0.164062 73.941406 0.164062 62.394531 L 0.164062 21.605469 C 0.164062 10.058594 9.523438 0.699219 21.070312 0.699219 Z M 21.070312 0.699219 " clip-rule="nonzero"/></clipPath><clipPath id="3d79178743"><path d="M 0.164062 0.699219 L 301.21875 0.699219 L 301.21875 83.304688 L 0.164062 83.304688 Z M 0.164062 0.699219 " clip-rule="nonzero"/></clipPath><clipPath id="985e41ce18"><path d="M 21.070312 0.699219 L 280.199219 0.699219 C 291.746094 0.699219 301.105469 10.058594 301.105469 21.605469 L 301.105469 62.394531 C 301.105469 73.941406 291.746094 83.304688 280.199219 83.304688 L 21.070312 83.304688 C 9.523438 83.304688 0.164062 73.941406 0.164062 62.394531 L 0.164062 21.605469 C 0.164062 10.058594 9.523438 0.699219 21.070312 0.699219 Z M 21.070312 0.699219 " clip-rule="nonzero"/></clipPath><clipPath id="cb475148a5"><rect x="0" width="302" y="0" height="84"/></clipPath><clipPath id="d044f31faf"><path d="M 14.023438 10.394531 L 68.640625 10.394531 L 68.640625 73.980469 L 14.023438 73.980469 Z M 14.023438 10.394531 " clip-rule="nonzero"/></clipPath><clipPath id="215069e67f"><path d="M 0.289062 0.394531 L 54.640625 0.394531 L 54.640625 63.453125 L 0.289062 63.453125 Z M 0.289062 0.394531 " clip-rule="nonzero"/></clipPath><clipPath id="13a6cbe95a"><rect x="0" width="55" y="0" height="64"/></clipPath><clipPath id="8814a0c526"><path d="M 313 5 L 735.84375 5 L 735.84375 77 L 313 77 Z M 313 5 " clip-rule="nonzero"/></clipPath><clipPath id="77151ab619"><rect x="0" width="423" y="0" height="72"/></clipPath><clipPath id="005e0dfa37"><rect x="0" width="207" y="0" height="72"/></clipPath><clipPath id="9f1a8ae89a"><rect x="0" width="736" y="0" height="84"/></clipPath></defs><g transform="matrix(1, 0, 0, 1, 7, 14)"><g clip-path="url(#9f1a8ae89a)"><g clip-path="url(#cff4d8f282)"><g clip-path="url(#41c0a79e09)"><g transform="matrix(1, 0, 0, 1, 0.000000000000000888, 0)"><g clip-path="url(#cb475148a5)"><g clip-path="url(#3d79178743)"><g clip-path="url(#985e41ce18)"><path fill="#4040ff" d="M 0.164062 0.699219 L 301.21875 0.699219 L 301.21875 83.304688 L 0.164062 83.304688 Z M 0.164062 0.699219 " fill-opacity="1" fill-rule="nonzero"/></g></g></g></g></g></g><g clip-path="url(#d044f31faf)"><g transform="matrix(1, 0, 0, 1, 14, 10)"><g clip-path="url(#13a6cbe95a)"><g clip-path="url(#215069e67f)"><path fill="#ffffff" d="M 32.171875 0.394531 L 30.09375 0.394531 C 28.949219 0.523438 28.101562 0.648438 27.542969 0.765625 C 20.957031 2.171875 16.160156 7.28125 14.898438 13.847656 C 14.4375 16.230469 14.367188 18.625 14.679688 21.03125 C 15.046875 23.878906 15.875 26.867188 16.382812 29.191406 C 16.726562 30.773438 16.832031 32.578125 16.464844 34.148438 C 15.820312 36.882812 13.992188 39.171875 11.53125 40.5 C 10.097656 41.269531 8.5625 41.851562 7.085938 42.527344 C 5.621094 43.199219 4.265625 44.050781 3.03125 45.078125 C 1.765625 46.128906 0.535156 47.757812 0.1875 49.386719 C 0.144531 49.597656 0.09375 49.808594 0.0390625 50.015625 L 0.0390625 51.070312 C 0.394531 53.117188 2.132812 53.988281 4.039062 54.082031 C 5.140625 54.132812 6.238281 54.09375 7.328125 53.957031 C 8.441406 53.824219 9.867188 53.566406 11.617188 53.1875 C 13.007812 52.886719 15.25 52.496094 16.21875 53.851562 C 16.78125 54.644531 16.710938 55.742188 16.605469 56.722656 C 16.425781 58.371094 16.933594 60.207031 18.832031 60.402344 C 19.636719 60.484375 20.726562 60.25 21.539062 59.980469 C 23.582031 59.304688 25.820312 58.3125 28.039062 57.742188 C 29.242188 57.433594 31.449219 57.246094 31.601562 59.085938 C 31.65625 59.78125 31.378906 60.410156 31.125 61.125 C 30.851562 61.90625 30.707031 62.59375 31.460938 63.058594 C 32.328125 63.59375 34.007812 63.082031 34.890625 62.675781 C 39.003906 60.789062 42.492188 57.894531 45.328125 54.550781 C 48.457031 50.863281 50.867188 46.75 52.554688 42.214844 C 53.539062 39.566406 54.207031 36.835938 54.5625 34.03125 C 54.609375 33.660156 54.65625 33.285156 54.699219 32.910156 C 54.796875 32.101562 54.808594 31.21875 54.894531 30.367188 L 54.894531 28.160156 C 54.820312 27.214844 54.742188 26.269531 54.667969 25.324219 C 54.59375 24.441406 54.429688 23.359375 54.171875 22.082031 C 53.339844 17.921875 51.707031 14.109375 49.273438 10.648438 C 45.773438 5.664062 40.597656 1.847656 34.558594 0.714844 C 33.824219 0.574219 32.972656 0.492188 32.171875 0.394531 Z M 46.019531 27.003906 C 45.777344 27.121094 45.519531 27.210938 45.253906 27.265625 C 44.984375 27.324219 44.710938 27.347656 44.429688 27.339844 C 44.148438 27.335938 43.867188 27.296875 43.582031 27.226562 C 43.300781 27.15625 43.019531 27.054688 42.742188 26.925781 C 42.46875 26.792969 42.199219 26.636719 41.941406 26.449219 C 41.683594 26.261719 41.441406 26.054688 41.214844 25.816406 C 40.984375 25.582031 40.773438 25.328125 40.582031 25.054688 C 40.390625 24.78125 40.222656 24.492188 40.074219 24.191406 C 39.925781 23.886719 39.804688 23.574219 39.707031 23.253906 C 39.613281 22.9375 39.542969 22.613281 39.5 22.289062 C 39.457031 21.964844 39.441406 21.640625 39.453125 21.324219 C 39.46875 21.007812 39.507812 20.699219 39.574219 20.402344 C 39.644531 20.105469 39.738281 19.820312 39.859375 19.554688 C 39.980469 19.289062 40.125 19.042969 40.292969 18.816406 C 40.460938 18.59375 40.648438 18.394531 40.859375 18.21875 C 41.070312 18.042969 41.296875 17.898438 41.539062 17.777344 C 41.78125 17.660156 42.039062 17.574219 42.304688 17.515625 C 42.574219 17.460938 42.847656 17.433594 43.128906 17.441406 C 43.410156 17.449219 43.691406 17.484375 43.976562 17.554688 C 44.257812 17.625 44.539062 17.726562 44.816406 17.855469 C 45.089844 17.988281 45.359375 18.144531 45.617188 18.332031 C 45.875 18.519531 46.117188 18.730469 46.34375 18.964844 C 46.574219 19.199219 46.785156 19.453125 46.976562 19.726562 C 47.167969 20 47.335938 20.289062 47.484375 20.59375 C 47.632812 20.894531 47.753906 21.207031 47.851562 21.527344 C 47.945312 21.847656 48.015625 22.167969 48.058594 22.492188 C 48.101562 22.820312 48.117188 23.140625 48.105469 23.457031 C 48.089844 23.773438 48.050781 24.082031 47.984375 24.378906 C 47.914062 24.679688 47.820312 24.960938 47.699219 25.226562 C 47.578125 25.492188 47.433594 25.738281 47.265625 25.964844 C 47.097656 26.1875 46.910156 26.390625 46.699219 26.5625 C 46.488281 26.738281 46.261719 26.886719 46.019531 27.003906 Z M 31.414062 28.21875 C 31.164062 28.34375 30.898438 28.4375 30.625 28.5 C 30.347656 28.5625 30.0625 28.59375 29.773438 28.589844 C 29.484375 28.589844 29.191406 28.554688 28.898438 28.488281 C 28.605469 28.421875 28.316406 28.324219 28.03125 28.195312 C 27.742188 28.066406 27.46875 27.910156 27.203125 27.722656 C 26.933594 27.535156 26.683594 27.324219 26.445312 27.089844 C 26.207031 26.855469 25.988281 26.597656 25.789062 26.320312 C 25.589844 26.042969 25.414062 25.753906 25.261719 25.445312 C 25.109375 25.136719 24.980469 24.820312 24.878906 24.496094 C 24.777344 24.171875 24.707031 23.839844 24.660156 23.511719 C 24.613281 23.179688 24.597656 22.851562 24.609375 22.523438 C 24.621094 22.199219 24.664062 21.886719 24.730469 21.578125 C 24.800781 21.273438 24.898438 20.984375 25.019531 20.710938 C 25.144531 20.433594 25.292969 20.179688 25.464844 19.949219 C 25.636719 19.714844 25.832031 19.507812 26.046875 19.324219 C 26.265625 19.140625 26.5 18.988281 26.75 18.863281 C 27 18.738281 27.261719 18.644531 27.539062 18.582031 C 27.816406 18.519531 28.097656 18.488281 28.386719 18.492188 C 28.679688 18.492188 28.96875 18.527344 29.265625 18.59375 C 29.558594 18.660156 29.847656 18.757812 30.132812 18.886719 C 30.417969 19.015625 30.695312 19.171875 30.960938 19.359375 C 31.226562 19.542969 31.480469 19.753906 31.71875 19.992188 C 31.953125 20.226562 32.171875 20.484375 32.371094 20.761719 C 32.570312 21.039062 32.746094 21.328125 32.898438 21.636719 C 33.054688 21.945312 33.179688 22.261719 33.28125 22.585938 C 33.382812 22.910156 33.457031 23.238281 33.5 23.570312 C 33.546875 23.902344 33.5625 24.230469 33.550781 24.554688 C 33.539062 24.882812 33.5 25.195312 33.429688 25.5 C 33.363281 25.808594 33.265625 26.097656 33.140625 26.371094 C 33.019531 26.648438 32.871094 26.902344 32.695312 27.132812 C 32.523438 27.367188 32.328125 27.574219 32.113281 27.757812 C 31.898438 27.9375 31.664062 28.09375 31.414062 28.21875 Z M 31.414062 28.21875 " fill-opacity="1" fill-rule="nonzero"/></g></g></g></g><g clip-path="url(#8814a0c526)"><g transform="matrix(1, 0, 0, 1, 313, 5)"><g clip-path="url(#77151ab619)"><g fill="#4040ff" fill-opacity="1"><g transform="translate(1.419647, 56.785875)"><g><path d="M 14.96875 0.640625 L 13.796875 0.296875 L 12.734375 0.296875 L 11.4375 -0.234375 L 10.375 -0.46875 L 8.1875 -1.296875 L 5.484375 -3.359375 L 4.53125 -4.25 L 2.65625 -7.3125 L 1.828125 -9.4375 L 1.46875 -10.609375 L 1.359375 -11.78125 L 1.421875 -13.5625 L 1.234375 -15.265625 L 1.296875 -17.328125 L 1.890625 -18.453125 L 3.1875 -18.984375 L 4.484375 -18.984375 L 5.65625 -19.09375 L 9.375 -18.984375 L 10.671875 -18.5 L 11.3125 -17.453125 L 11.203125 -16.390625 L 11.25 -13.734375 L 11.609375 -11.90625 L 12.015625 -10.90625 L 12.84375 -10.140625 L 13.90625 -9.546875 L 15.09375 -9.140625 L 16.734375 -8.78125 L 18.453125 -8.953125 L 20.515625 -9.953125 L 21.15625 -10.78125 L 21.625 -11.96875 L 21.859375 -30.0625 L 21.21875 -31.171875 L 19.984375 -31.828125 L 18.15625 -31.703125 L 16.4375 -31.703125 L 15.328125 -31.890625 L 13.96875 -32.46875 L 13.5625 -33.71875 L 13.4375 -34.890625 L 13.5625 -35.828125 L 13.5 -37.25 L 13.5625 -38.375 L 13.4375 -39.609375 L 14.09375 -40.609375 L 15.328125 -41.140625 L 16.5625 -41.140625 L 18.328125 -41.4375 L 20.03125 -41.140625 L 21.328125 -41.3125 L 26.046875 -41.140625 L 27.28125 -41.25 L 30.234375 -41.203125 L 32.0625 -40.71875 L 32.65625 -39.546875 L 32.765625 -30.171875 L 32.59375 -29.109375 L 32.703125 -13.5 L 32.421875 -10.609375 L 31.65625 -8.078125 L 30.640625 -6.078125 L 28.296875 -3.484375 L 27.28125 -2.765625 L 26.46875 -2.0625 L 23.15625 -0.53125 L 22.109375 0.125 L 19.75 0.46875 L 18.453125 0.46875 L 16.796875 0.640625 Z M 14.96875 0.640625 "/></g></g></g><g fill="#4040ff" fill-opacity="1"><g transform="translate(38.198945, 56.785875)"><g><path d="M 22.046875 0.703125 L 20.8125 0.59375 L 18.6875 0.125 L 17.390625 0 L 15.671875 -0.59375 L 11.078125 -2.953125 L 9.140625 -4.484375 L 8.484375 -5.25 L 7.609375 -6.078125 L 6.84375 -7.015625 L 6.125 -7.71875 L 3.421875 -13.078125 L 2.890625 -15.328125 L 2.765625 -16.4375 L 2.46875 -17.5 L 2.296875 -18.734375 L 2.46875 -23.515625 L 3.484375 -28.046875 L 4.359375 -30.296875 L 6.1875 -33.421875 L 9.078125 -36.78125 L 11.078125 -38.25 L 12.140625 -38.78125 L 13.03125 -39.421875 L 17.453125 -41.078125 L 23.6875 -41.96875 L 25.28125 -41.90625 L 28.703125 -41.3125 L 33.234375 -39.90625 L 34.125 -39.25 L 35.890625 -38.484375 L 37.25 -37.546875 L 38.953125 -36.0625 L 40.609375 -34.25 L 41.90625 -32.46875 L 43.03125 -30.296875 L 44.5 -25.875 L 44.90625 -23.453125 L 45.09375 -20.515625 L 44.84375 -18.796875 L 44.796875 -17.5625 L 44.5 -16.390625 L 44.4375 -15.328125 L 43.96875 -13.078125 L 43.078125 -10.84375 L 40.484375 -6.890625 L 39.671875 -6.078125 L 38.90625 -5.015625 L 37.25 -3.59375 L 36.125 -3.0625 L 35.25 -2.359375 L 33.296875 -1.296875 L 28.875 0.171875 L 25.34375 0.640625 Z M 25.34375 -9.71875 L 26.515625 -9.953125 L 27.40625 -10.375 L 28.46875 -10.671875 L 31.296875 -12.609375 L 32.125 -13.5625 L 32.46875 -14.4375 L 33.125 -15.5 L 33.53125 -16.5625 L 34 -18.734375 L 34.125 -22.34375 L 33.953125 -23.390625 L 33.421875 -24.515625 L 32.703125 -26.75 L 30.40625 -29.171875 L 28.578125 -30.46875 L 27.53125 -30.9375 L 26.46875 -31.171875 L 23.640625 -31.53125 L 21.984375 -31.40625 L 19.6875 -30.828125 L 18.921875 -30.53125 L 15.96875 -28.53125 L 14.5625 -26.640625 L 14.203125 -25.578125 L 13.734375 -24.515625 L 13.5625 -23.390625 L 13.265625 -22.34375 L 13.265625 -18.734375 L 13.734375 -16.5625 L 14.265625 -15.5 L 14.5625 -14.5625 L 15.375 -13.4375 L 16.15625 -12.609375 L 17.734375 -11.3125 L 18.6875 -10.78125 L 20.8125 -9.90625 L 22.109375 -9.71875 Z M 25.34375 -9.71875 "/></g></g></g><g fill="#4040ff" fill-opacity="1"><g transform="translate(85.469779, 56.785875)"><g><path d="M 4.296875 -1.765625 L 4.25 -4 L 4.484375 -7.546875 L 4.296875 -9.953125 L 4.421875 -14.796875 L 4.296875 -15.90625 L 4.296875 -18.265625 L 4.421875 -19.390625 L 4.25 -20.625 L 4.25 -25.34375 L 4.359375 -26.46875 L 4.296875 -27.703125 L 4.421875 -28.828125 L 4.296875 -30.0625 L 4.484375 -31.296875 L 4.25 -35.25 L 4.359375 -36.953125 L 4.25 -39.484375 L 4.78125 -40.71875 L 5.953125 -41.25 L 23.6875 -41.140625 L 27 -40.375 L 29.171875 -39.1875 L 30.9375 -37.953125 L 31.765625 -37.125 L 33.1875 -35.25 L 33.53125 -34.125 L 34.125 -33 L 34.765625 -30.828125 L 34.828125 -29.109375 L 34 -24.875 L 33.296875 -23.875 L 32.65625 -22.6875 L 32.421875 -21.515625 L 32.953125 -20.21875 L 33.828125 -19.328125 L 34.65625 -18.328125 L 35.71875 -16.265625 L 36.125 -15.03125 L 36.359375 -13.90625 L 36.3125 -9.1875 L 35.828125 -8.015625 L 35.59375 -7.015625 L 35.0625 -5.890625 L 33.71875 -3.953125 L 32.765625 -3.0625 L 32 -2.46875 L 29.765625 -1.171875 L 27.8125 -0.40625 L 25.578125 -0.125 L 6.078125 0.125 L 4.953125 -0.40625 Z M 16.390625 -25.28125 L 20.8125 -25.28125 L 22.8125 -25.703125 L 23.8125 -26.640625 L 24.109375 -28.40625 L 23.921875 -30 L 23.15625 -30.828125 L 22.453125 -31.296875 L 20.625 -31.65625 L 16.390625 -31.828125 L 15.140625 -31.171875 L 14.5 -30.171875 L 14.609375 -29.0625 L 14.609375 -27.9375 L 14.375 -26.9375 L 14.96875 -25.75 Z M 16.203125 -9.375 L 20.8125 -9.3125 L 23.984375 -9.609375 L 25.046875 -10.25 L 25.8125 -11.078125 L 25.9375 -12.609375 L 25.8125 -14.265625 L 24.9375 -15.09375 L 24.046875 -15.734375 L 22.390625 -16.03125 L 16.15625 -16.03125 L 14.96875 -15.4375 L 14.5625 -14.375 L 14.5 -13.203125 L 14.609375 -12.078125 L 14.5625 -11.078125 L 15.203125 -9.84375 Z M 16.203125 -9.375 "/></g></g></g><g fill="#4040ff" fill-opacity="1"><g transform="translate(124.370959, 56.785875)"><g/></g></g><g fill="#4040ff" fill-opacity="1"><g transform="translate(140.344023, 56.785875)"><g><path d="M 20.515625 0.46875 L 19.390625 0.40625 L 18.328125 0.171875 L 17.15625 -0.234375 L 16.09375 -0.46875 L 13.4375 -1.59375 L 10.90625 -2.953125 L 8.25 -5.25 L 5.828125 -7.84375 L 3.296875 -12.96875 L 2.46875 -16.328125 L 2.125 -20.625 L 2.71875 -25.703125 L 3.296875 -28.109375 L 4.78125 -31.40625 L 5.890625 -33.125 L 7.484375 -35.125 L 10.015625 -37.421875 L 11.734375 -38.71875 L 16.09375 -40.78125 L 21.8125 -41.90625 L 25.46875 -41.84375 L 26.640625 -41.671875 L 27.765625 -41.609375 L 33.421875 -39.71875 L 37.421875 -37.1875 L 39.078125 -35.484375 L 39.71875 -34.359375 L 40.546875 -33.359375 L 41.078125 -32.421875 L 41.734375 -31.46875 L 42.078125 -30.234375 L 42.5 -29.171875 L 42.84375 -27.875 L 42.4375 -26.703125 L 41.4375 -26.234375 L 39.671875 -26.046875 L 38.015625 -26.234375 L 36.84375 -26.171875 L 35.59375 -26.234375 L 34.53125 -26.109375 L 33.1875 -26.75 L 32.0625 -27.875 L 31.40625 -28.765625 L 29.703125 -30.46875 L 28.875 -31.125 L 27.8125 -31.53125 L 25.984375 -32.0625 L 23.453125 -32.1875 L 19.515625 -31.65625 L 17.921875 -30.765625 L 16.5 -29.640625 L 15.09375 -28 L 14.5 -26.875 L 13.609375 -24.75 L 13.203125 -22.390625 L 13.203125 -18.796875 L 13.375 -17.5 L 13.671875 -16.4375 L 14.09375 -15.625 L 14.5 -14.4375 L 15.796875 -12.375 L 17.5 -10.84375 L 19.5625 -9.78125 L 21.6875 -9.015625 L 23.390625 -8.84375 L 26.515625 -9.015625 L 28.578125 -10.140625 L 29.46875 -10.484375 L 30.40625 -11.3125 L 31.765625 -12.84375 L 32.359375 -13.96875 L 33.296875 -14.90625 L 34.65625 -15.625 L 35.828125 -15.5625 L 37.015625 -15.625 L 38.1875 -15.4375 L 41.484375 -15.671875 L 42.671875 -14.90625 L 43.03125 -13.84375 L 41.484375 -9.375 L 40.25 -7.25 L 38.90625 -5.484375 L 37.25 -3.828125 L 34.359375 -1.765625 L 33.359375 -1.296875 L 32.125 -0.890625 L 31.0625 -0.296875 L 27.578125 0.40625 L 23.453125 0.703125 Z M 20.515625 0.46875 "/></g></g></g><g fill="#4040ff" fill-opacity="1"><g transform="translate(185.316149, 56.785875)"><g><path d="M 4.484375 -1.65625 L 4.359375 -7.65625 L 4.484375 -8.84375 L 4.296875 -9.90625 L 4.484375 -11.078125 L 4.359375 -12.375 L 4.53125 -15.140625 L 4.421875 -16.5 L 4.53125 -18.328125 L 4.359375 -19.453125 L 4.359375 -22.875 L 4.484375 -24.109375 L 4.25 -27.703125 L 4.484375 -28.875 L 4.359375 -29.875 L 4.53125 -31.171875 L 4.25 -34.71875 L 4.421875 -35.828125 L 4.296875 -37.125 L 4.296875 -38.25 L 4.484375 -39.546875 L 5.125 -40.546875 L 6.953125 -41.078125 L 8.078125 -41.203125 L 9.25 -41.078125 L 12.734375 -41.203125 L 14.5625 -40.609375 L 15.265625 -39.375 L 15.203125 -38.375 L 15.375 -32.53125 L 15.265625 -31.46875 L 15.265625 -27.9375 L 15.734375 -26.8125 L 16.96875 -26.28125 L 22.6875 -26.34375 L 23.75 -26.234375 L 26.109375 -26.234375 L 27.109375 -26.8125 L 27.765625 -28 L 27.765625 -31.40625 L 28 -32.421875 L 27.875 -38.84375 L 28.34375 -40.546875 L 30.109375 -41.078125 L 31.296875 -41.078125 L 33.1875 -41.25 L 36.1875 -41.203125 L 38.015625 -40.609375 L 38.609375 -39.421875 L 38.71875 -38.25 L 38.484375 -37.078125 L 38.609375 -35.953125 L 38.84375 -34.828125 L 38.546875 -29.9375 L 38.71875 -24.171875 L 38.609375 -22.875 L 38.65625 -20.625 L 38.484375 -19.390625 L 38.484375 -18.21875 L 38.609375 -16.96875 L 38.546875 -15.796875 L 38.78125 -13.5625 L 38.78125 -4.0625 L 38.546875 -1.65625 L 37.890625 -0.53125 L 36.71875 0.125 L 32.65625 0.125 L 30.890625 -0.0625 L 29.703125 0.0625 L 28.53125 -0.53125 L 27.9375 -1.765625 L 27.765625 -4.0625 L 28 -5.828125 L 27.765625 -10.015625 L 27.9375 -11.140625 L 27.765625 -14.734375 L 27.171875 -15.90625 L 26.109375 -16.5 L 24.984375 -16.5 L 23.8125 -16.625 L 22.625 -16.5 L 19.15625 -16.5 L 18.09375 -16.625 L 16.859375 -16.625 L 15.671875 -15.90625 L 15.09375 -14.671875 L 15.265625 -10.015625 L 15.140625 -8.78125 L 15.203125 -7.484375 L 15.09375 -6.359375 L 15.203125 -5.1875 L 15.09375 -4.125 L 15.265625 -2.828125 L 15.203125 -1.65625 L 14.734375 -0.46875 L 13.4375 0.0625 L 12.203125 0.171875 L 10.96875 0 L 9.25 -0.0625 L 7.421875 0.125 L 6.3125 0.125 L 4.953125 -0.40625 Z M 4.484375 -1.65625 "/></g></g></g><g fill="#4040ff" fill-opacity="1"><g transform="translate(228.461094, 56.785875)"><g><path d="M 4.25 -1.703125 L 4.484375 -2.890625 L 4.53125 -4.0625 L 4.421875 -6.359375 L 4.421875 -7.546875 L 4.296875 -8.90625 L 4.484375 -9.953125 L 4.421875 -11.078125 L 4.53125 -12.375 L 4.359375 -13.609375 L 4.484375 -15.96875 L 4.296875 -18.265625 L 4.484375 -19.515625 L 4.484375 -30.0625 L 4.359375 -31.125 L 4.484375 -32.359375 L 4.25 -35.359375 L 4.484375 -37.078125 L 4.359375 -39.421875 L 4.953125 -40.71875 L 6.65625 -41.140625 L 14.375 -41.3125 L 15.4375 -41.203125 L 17.734375 -41.25 L 18.921875 -41.140625 L 21.515625 -41.25 L 22.6875 -41.078125 L 23.75 -41.203125 L 28.46875 -41.140625 L 29.703125 -40.609375 L 30.296875 -39.421875 L 30.109375 -38.3125 L 30.0625 -37.015625 L 30.234375 -35.890625 L 30.359375 -33.46875 L 29.703125 -32.421875 L 28.46875 -31.765625 L 17.15625 -31.703125 L 15.328125 -31.171875 L 14.734375 -29.46875 L 14.859375 -27.640625 L 15.5625 -26.578125 L 16.5625 -25.9375 L 21.21875 -25.984375 L 22.578125 -25.875 L 23.8125 -25.875 L 24.984375 -25.984375 L 27.34375 -25.9375 L 28.34375 -25.28125 L 28.875 -24.171875 L 29 -22.984375 L 28.875 -18.328125 L 28.296875 -17.203125 L 27.109375 -16.5625 L 26.046875 -16.5 L 24.8125 -16.625 L 23.21875 -16.5 L 20.09375 -16.671875 L 18.921875 -16.5625 L 16.625 -16.5625 L 15.5625 -15.90625 L 15.03125 -14.671875 L 14.96875 -11.78125 L 15.5 -9.953125 L 16.734375 -9.25 L 18.03125 -9.375 L 19.328125 -9.25 L 20.453125 -9.4375 L 28.234375 -9.3125 L 30 -8.71875 L 30.765625 -7.546875 L 30.640625 -6.421875 L 30.703125 -2.765625 L 30.59375 -1.65625 L 30.0625 -0.53125 L 28.828125 0.0625 L 27.703125 0.171875 L 24.109375 -0.0625 L 20.515625 0.125 L 19.453125 -0.0625 L 6.125 0.0625 L 5.015625 -0.59375 Z M 4.25 -1.703125 "/></g></g></g><g fill="#4040ff" fill-opacity="1"><g transform="translate(261.762837, 56.785875)"><g><path d="M 21.6875 0.59375 L 20.5625 0.59375 L 19.515625 0.359375 L 18.265625 0.234375 L 17.03125 -0.171875 L 16.15625 -0.40625 L 14.96875 -0.828125 L 10.96875 -3 L 10.078125 -3.71875 L 9.078125 -4.359375 L 6.953125 -6.421875 L 4.59375 -9.84375 L 4.1875 -10.84375 L 3.59375 -11.90625 L 3.421875 -12.96875 L 2.953125 -14.09375 L 2.359375 -16.390625 L 2.359375 -18.734375 L 2.125 -20.625 L 3.1875 -28 L 5.890625 -33.296875 L 6.59375 -34.296875 L 8.1875 -35.78125 L 8.90625 -36.71875 L 13.03125 -39.375 L 14.09375 -39.78125 L 14.96875 -40.3125 L 16.09375 -40.71875 L 18.390625 -41.203125 L 19.515625 -41.546875 L 20.515625 -41.671875 L 25.875 -41.671875 L 28.828125 -41.25 L 31.125 -40.609375 L 34.484375 -39.078125 L 35.78125 -38.1875 L 38.84375 -35.421875 L 41.015625 -32.421875 L 41.96875 -30.171875 L 42.140625 -29.109375 L 42.609375 -27.9375 L 42.265625 -26.703125 L 41.3125 -26.171875 L 40.140625 -26.046875 L 34.1875 -26.171875 L 32.890625 -26.703125 L 31.828125 -27.8125 L 31.296875 -28.828125 L 30.40625 -29.765625 L 28.703125 -31.171875 L 27.46875 -31.59375 L 25.21875 -32 L 21.578125 -32.125 L 19.515625 -31.53125 L 18.390625 -31.0625 L 16.4375 -29.640625 L 14.96875 -27.8125 L 13.96875 -25.703125 L 13.609375 -24.640625 L 13.5625 -23.453125 L 13.140625 -22.390625 L 13.078125 -20.515625 L 13.265625 -17.734375 L 13.96875 -15.4375 L 14.4375 -14.4375 L 16.625 -11.609375 L 17.390625 -10.78125 L 18.5 -10.25 L 21.6875 -9.078125 L 24.984375 -9.015625 L 26.234375 -9.140625 L 27.40625 -9.484375 L 29.40625 -10.484375 L 31.65625 -12.90625 L 32.125 -13.90625 L 33.296875 -15.03125 L 34.59375 -15.625 L 40.90625 -15.5625 L 42.375 -14.90625 L 42.734375 -13.84375 L 42.546875 -12.734375 L 42.140625 -11.546875 L 41.84375 -10.4375 L 41.3125 -9.375 L 39.546875 -6.3125 L 38.546875 -5.546875 L 37.890625 -4.53125 L 37.125 -3.765625 L 36.125 -3.0625 L 35.0625 -2.421875 L 34.1875 -1.828125 L 30.9375 -0.40625 L 25.21875 0.765625 Z M 21.6875 0.59375 "/></g></g></g><g fill="#4040ff" fill-opacity="1"><g transform="translate(306.734985, 56.785875)"><g><path d="M 4.53125 -1.765625 L 4.359375 -2.953125 L 4.484375 -4 L 4.421875 -5.1875 L 4.53125 -6.484375 L 4.25 -8.84375 L 4.421875 -11.203125 L 4.359375 -12.4375 L 4.53125 -13.5 L 4.421875 -27.640625 L 4.25 -28.875 L 4.53125 -31.234375 L 4.359375 -32.421875 L 4.296875 -33.53125 L 4.484375 -37.078125 L 4.359375 -38.25 L 4.359375 -39.484375 L 5.1875 -40.546875 L 6.125 -41.3125 L 10.90625 -41.203125 L 12.078125 -41.3125 L 13.3125 -41.203125 L 14.375 -40.609375 L 14.96875 -39.3125 L 15.03125 -38.125 L 15.203125 -37.015625 L 15.03125 -28.46875 L 15.203125 -27.40625 L 15.140625 -26.171875 L 16.203125 -25.515625 L 17.625 -25.578125 L 20.21875 -26.109375 L 21.21875 -26.578125 L 22.28125 -27.234375 L 23.15625 -28 L 23.875 -28.9375 L 24.640625 -29.828125 L 25.109375 -30.9375 L 25.703125 -33.296875 L 25.984375 -35.78125 L 25.8125 -39.375 L 26.46875 -40.609375 L 27.875 -41.3125 L 29.59375 -41.140625 L 34.953125 -41.3125 L 36.1875 -40.671875 L 36.65625 -39.3125 L 36.71875 -36.953125 L 36.484375 -35.828125 L 36.59375 -34.53125 L 36.25 -32.0625 L 36.1875 -30.9375 L 35.59375 -28.703125 L 35.0625 -27.46875 L 34.765625 -26.40625 L 34.1875 -25.28125 L 32.890625 -23.28125 L 31.171875 -21.578125 L 30.109375 -20.921875 L 29.59375 -19.5625 L 29.59375 -18.265625 L 31.65625 -15.328125 L 33.359375 -12.265625 L 34.0625 -11.203125 L 34.53125 -10.140625 L 35.25 -9.1875 L 36.359375 -7.1875 L 37.25 -6.1875 L 37.71875 -5.0625 L 38.3125 -4.0625 L 39.140625 -3.1875 L 39.671875 -1.765625 L 39.375 -0.40625 L 38.375 0.125 L 37.125 0 L 30.59375 0 L 28.578125 -0.40625 L 27.46875 -1.296875 L 25.875 -4.359375 L 25.109375 -5.359375 L 24.578125 -6.359375 L 23.875 -7.375 L 22.390625 -10.4375 L 19.984375 -14.4375 L 18.859375 -15.328125 L 17.09375 -15.671875 L 15.625 -14.96875 L 15.09375 -13.90625 L 15.09375 -10.25 L 14.96875 -8.953125 L 15.140625 -1.828125 L 14.5625 -0.53125 L 12.84375 0.0625 L 6.65625 0.125 L 4.953125 -0.53125 Z M 4.53125 -1.765625 "/></g></g></g><g fill="#4040ff" fill-opacity="1"><g transform="translate(347.581199, 56.785875)"><g><path d="M 4.25 -1.703125 L 4.484375 -2.890625 L 4.53125 -4.0625 L 4.421875 -6.359375 L 4.421875 -7.546875 L 4.296875 -8.90625 L 4.484375 -9.953125 L 4.421875 -11.078125 L 4.53125 -12.375 L 4.359375 -13.609375 L 4.484375 -15.96875 L 4.296875 -18.265625 L 4.484375 -19.515625 L 4.484375 -30.0625 L 4.359375 -31.125 L 4.484375 -32.359375 L 4.25 -35.359375 L 4.484375 -37.078125 L 4.359375 -39.421875 L 4.953125 -40.71875 L 6.65625 -41.140625 L 14.375 -41.3125 L 15.4375 -41.203125 L 17.734375 -41.25 L 18.921875 -41.140625 L 21.515625 -41.25 L 22.6875 -41.078125 L 23.75 -41.203125 L 28.46875 -41.140625 L 29.703125 -40.609375 L 30.296875 -39.421875 L 30.109375 -38.3125 L 30.0625 -37.015625 L 30.234375 -35.890625 L 30.359375 -33.46875 L 29.703125 -32.421875 L 28.46875 -31.765625 L 17.15625 -31.703125 L 15.328125 -31.171875 L 14.734375 -29.46875 L 14.859375 -27.640625 L 15.5625 -26.578125 L 16.5625 -25.9375 L 21.21875 -25.984375 L 22.578125 -25.875 L 23.8125 -25.875 L 24.984375 -25.984375 L 27.34375 -25.9375 L 28.34375 -25.28125 L 28.875 -24.171875 L 29 -22.984375 L 28.875 -18.328125 L 28.296875 -17.203125 L 27.109375 -16.5625 L 26.046875 -16.5 L 24.8125 -16.625 L 23.21875 -16.5 L 20.09375 -16.671875 L 18.921875 -16.5625 L 16.625 -16.5625 L 15.5625 -15.90625 L 15.03125 -14.671875 L 14.96875 -11.78125 L 15.5 -9.953125 L 16.734375 -9.25 L 18.03125 -9.375 L 19.328125 -9.25 L 20.453125 -9.4375 L 28.234375 -9.3125 L 30 -8.71875 L 30.765625 -7.546875 L 30.640625 -6.421875 L 30.703125 -2.765625 L 30.59375 -1.65625 L 30.0625 -0.53125 L 28.828125 0.0625 L 27.703125 0.171875 L 24.109375 -0.0625 L 20.515625 0.125 L 19.453125 -0.0625 L 6.125 0.0625 L 5.015625 -0.59375 Z M 4.25 -1.703125 "/></g></g></g><g fill="#4040ff" fill-opacity="1"><g transform="translate(381.354494, 56.785875)"><g><path d="M 4.53125 -1.890625 L 4.359375 -6.484375 L 4.484375 -7.71875 L 4.25 -11.140625 L 4.421875 -13.5625 L 4.25 -14.859375 L 4.296875 -17.09375 L 4.421875 -18.328125 L 4.421875 -21.28125 L 4.25 -22.984375 L 4.421875 -39.484375 L 4.890625 -40.71875 L 6.015625 -41.25 L 7.3125 -41.203125 L 8.421875 -41.375 L 10.84375 -41.140625 L 11.96875 -41.3125 L 15.5 -41.203125 L 16.5 -41.3125 L 17.796875 -41.203125 L 18.984375 -41.3125 L 20.28125 -41.25 L 21.984375 -41.3125 L 23.453125 -41.203125 L 28.34375 -40.203125 L 30.40625 -39.140625 L 33.359375 -36.890625 L 33.890625 -36.015625 L 34.71875 -35.125 L 36.3125 -31.890625 L 36.59375 -30.703125 L 36.78125 -29.59375 L 37.078125 -28.46875 L 37.015625 -23.8125 L 36.359375 -21.578125 L 35.953125 -20.5625 L 35.296875 -19.515625 L 34.890625 -18.390625 L 34.1875 -17.390625 L 32.53125 -15.796875 L 31.890625 -14.5625 L 32.0625 -13.140625 L 33.828125 -10.078125 L 34.59375 -9.140625 L 35.1875 -8.078125 L 35.890625 -7.015625 L 36.421875 -6.015625 L 38.3125 -3.125 L 39.078125 -1.65625 L 38.84375 -0.40625 L 37.609375 -0.125 L 36.3125 0 L 33.953125 0 L 32.765625 -0.125 L 31.46875 0 L 29.34375 -0.125 L 27.875 -0.46875 L 26.703125 -1.53125 L 25.984375 -2.46875 L 25.46875 -3.484375 L 24.6875 -4.59375 L 23.046875 -7.546875 L 22.625 -8.65625 L 21.09375 -10.734375 L 20.15625 -11.734375 L 18.6875 -12.203125 L 17.625 -12.140625 L 16.5625 -12.140625 L 15.375 -11.546875 L 14.859375 -10.375 L 14.96875 -6.71875 L 14.796875 -4.1875 L 15.03125 -2.953125 L 14.90625 -1.703125 L 14.5 -0.59375 L 12.671875 0 L 10.90625 0 L 9.671875 -0.125 L 7.25 0.0625 L 6.125 0 L 4.953125 -0.59375 Z M 16.5625 -21.6875 L 17.859375 -21.6875 L 19.03125 -21.515625 L 23.640625 -21.921875 L 24.515625 -22.34375 L 25.21875 -23.046875 L 25.875 -24.046875 L 26.34375 -25.21875 L 26.515625 -26.8125 L 26.40625 -28.53125 L 25.984375 -29.46875 L 25.40625 -30.359375 L 23.578125 -31.46875 L 20.859375 -31.828125 L 17.625 -31.890625 L 16.671875 -31.828125 L 15.5 -31.234375 L 14.796875 -30.0625 L 14.96875 -23.453125 L 15.5625 -22.21875 Z M 16.5625 -21.6875 "/></g></g></g></g></g></g><g transform="matrix(1, 0, 0, 1, 77, 6)"><g clip-path="url(#005e0dfa37)"><g fill="#ffffff" fill-opacity="1"><g transform="translate(0.545528, 55.89522)"><g><path d="M 20.453125 0.59375 L 19.265625 0.234375 L 15.90625 -0.359375 L 14.90625 -0.640625 L 10.84375 -3 L 8.90625 -4.359375 L 6.546875 -6.84375 L 5.1875 -8.84375 L 4.125 -10.84375 L 2.46875 -16.390625 L 2.1875 -20.515625 L 2.234375 -22.390625 L 3.296875 -28.234375 L 5.484375 -32.65625 L 6.125 -33.53125 L 7.015625 -34.421875 L 7.78125 -35.359375 L 10.375 -37.65625 L 13.609375 -39.671875 L 18.15625 -41.3125 L 19.265625 -41.375 L 20.28125 -41.734375 L 21.453125 -41.78125 L 26.9375 -41.546875 L 29.703125 -40.78125 L 30.9375 -40.546875 L 35.0625 -38.375 L 35.953125 -37.65625 L 36.890625 -36.78125 L 38.1875 -35.71875 L 40.546875 -32.296875 L 41.078125 -31.234375 L 41.90625 -28.828125 L 41.546875 -27.8125 L 40.078125 -27.171875 L 37.25 -27.34375 L 35.484375 -27.109375 L 33.65625 -27.171875 L 32.234375 -27.578125 L 31 -28.578125 L 30.234375 -29.59375 L 29.53125 -30.359375 L 28.40625 -31.125 L 27.28125 -31.59375 L 25.109375 -32.1875 L 21.515625 -32.0625 L 20.515625 -31.59375 L 19.390625 -31.46875 L 18.390625 -30.9375 L 16.328125 -29.46875 L 14.5 -26.703125 L 13.5625 -24.578125 L 13.140625 -22.28125 L 13.203125 -18.859375 L 13.5 -16.96875 L 13.96875 -15.265625 L 15.09375 -13.140625 L 15.734375 -12.3125 L 17.5 -10.671875 L 20.6875 -9.375 L 23.6875 -9.015625 L 25.21875 -9.078125 L 27.53125 -9.609375 L 29.46875 -10.375 L 30.296875 -11.015625 L 31.171875 -12.015625 L 31.765625 -13.03125 L 31.59375 -14.03125 L 30.703125 -14.4375 L 29.640625 -14.609375 L 26.703125 -14.375 L 24.984375 -14.5 L 23.921875 -15.140625 L 23.390625 -16.09375 L 23.390625 -21.6875 L 23.921875 -22.8125 L 25.109375 -23.390625 L 27.34375 -23.578125 L 30.890625 -23.34375 L 38.84375 -23.515625 L 40.078125 -23.34375 L 41.3125 -23.28125 L 42.4375 -22.6875 L 43.03125 -21.6875 L 43.140625 -19.453125 L 43.03125 -18.328125 L 43.03125 -17.15625 L 42.78125 -16.09375 L 42.734375 -15.09375 L 42.265625 -12.84375 L 41.078125 -9.375 L 40.375 -8.546875 L 39.84375 -7.484375 L 39.25 -6.484375 L 38.546875 -5.65625 L 37.65625 -4.953125 L 36.78125 -4 L 34.953125 -2.59375 L 30.765625 -0.46875 L 26.34375 0.59375 Z M 20.453125 0.59375 "/></g></g></g><g fill="#ffffff" fill-opacity="1"><g transform="translate(45.693326, 55.89522)"><g><path d="M 4.484375 -1.65625 L 4.359375 -7.65625 L 4.484375 -8.84375 L 4.296875 -9.90625 L 4.484375 -11.078125 L 4.359375 -12.375 L 4.53125 -15.140625 L 4.421875 -16.5 L 4.53125 -18.328125 L 4.359375 -19.453125 L 4.359375 -22.875 L 4.484375 -24.109375 L 4.25 -27.703125 L 4.484375 -28.875 L 4.359375 -29.875 L 4.53125 -31.171875 L 4.25 -34.71875 L 4.421875 -35.828125 L 4.296875 -37.125 L 4.296875 -38.25 L 4.484375 -39.546875 L 5.125 -40.546875 L 6.953125 -41.078125 L 8.078125 -41.203125 L 9.25 -41.078125 L 12.734375 -41.203125 L 14.5625 -40.609375 L 15.265625 -39.375 L 15.203125 -38.375 L 15.375 -32.53125 L 15.265625 -31.46875 L 15.265625 -27.9375 L 15.734375 -26.8125 L 16.96875 -26.28125 L 22.6875 -26.34375 L 23.75 -26.234375 L 26.109375 -26.234375 L 27.109375 -26.8125 L 27.765625 -28 L 27.765625 -31.40625 L 28 -32.421875 L 27.875 -38.84375 L 28.34375 -40.546875 L 30.109375 -41.078125 L 31.296875 -41.078125 L 33.1875 -41.25 L 36.1875 -41.203125 L 38.015625 -40.609375 L 38.609375 -39.421875 L 38.71875 -38.25 L 38.484375 -37.078125 L 38.609375 -35.953125 L 38.84375 -34.828125 L 38.546875 -29.9375 L 38.71875 -24.171875 L 38.609375 -22.875 L 38.65625 -20.625 L 38.484375 -19.390625 L 38.484375 -18.21875 L 38.609375 -16.96875 L 38.546875 -15.796875 L 38.78125 -13.5625 L 38.78125 -4.0625 L 38.546875 -1.65625 L 37.890625 -0.53125 L 36.71875 0.125 L 32.65625 0.125 L 30.890625 -0.0625 L 29.703125 0.0625 L 28.53125 -0.53125 L 27.9375 -1.765625 L 27.765625 -4.0625 L 28 -5.828125 L 27.765625 -10.015625 L 27.9375 -11.140625 L 27.765625 -14.734375 L 27.171875 -15.90625 L 26.109375 -16.5 L 24.984375 -16.5 L 23.8125 -16.625 L 22.625 -16.5 L 19.15625 -16.5 L 18.09375 -16.625 L 16.859375 -16.625 L 15.671875 -15.90625 L 15.09375 -14.671875 L 15.265625 -10.015625 L 15.140625 -8.78125 L 15.203125 -7.484375 L 15.09375 -6.359375 L 15.203125 -5.1875 L 15.09375 -4.125 L 15.265625 -2.828125 L 15.203125 -1.65625 L 14.734375 -0.46875 L 13.4375 0.0625 L 12.203125 0.171875 L 10.96875 0 L 9.25 -0.0625 L 7.421875 0.125 L 6.3125 0.125 L 4.953125 -0.40625 Z M 4.484375 -1.65625 "/></g></g></g><g fill="#ffffff" fill-opacity="1"><g transform="translate(88.837171, 55.89522)"><g><path d="M 22.046875 0.703125 L 20.8125 0.59375 L 18.6875 0.125 L 17.390625 0 L 15.671875 -0.59375 L 11.078125 -2.953125 L 9.140625 -4.484375 L 8.484375 -5.25 L 7.609375 -6.078125 L 6.84375 -7.015625 L 6.125 -7.71875 L 3.421875 -13.078125 L 2.890625 -15.328125 L 2.765625 -16.4375 L 2.46875 -17.5 L 2.296875 -18.734375 L 2.46875 -23.515625 L 3.484375 -28.046875 L 4.359375 -30.296875 L 6.1875 -33.421875 L 9.078125 -36.78125 L 11.078125 -38.25 L 12.140625 -38.78125 L 13.03125 -39.421875 L 17.453125 -41.078125 L 23.6875 -41.96875 L 25.28125 -41.90625 L 28.703125 -41.3125 L 33.234375 -39.90625 L 34.125 -39.25 L 35.890625 -38.484375 L 37.25 -37.546875 L 38.953125 -36.0625 L 40.609375 -34.25 L 41.90625 -32.46875 L 43.03125 -30.296875 L 44.5 -25.875 L 44.90625 -23.453125 L 45.09375 -20.515625 L 44.84375 -18.796875 L 44.796875 -17.5625 L 44.5 -16.390625 L 44.4375 -15.328125 L 43.96875 -13.078125 L 43.078125 -10.84375 L 40.484375 -6.890625 L 39.671875 -6.078125 L 38.90625 -5.015625 L 37.25 -3.59375 L 36.125 -3.0625 L 35.25 -2.359375 L 33.296875 -1.296875 L 28.875 0.171875 L 25.34375 0.640625 Z M 25.34375 -9.71875 L 26.515625 -9.953125 L 27.40625 -10.375 L 28.46875 -10.671875 L 31.296875 -12.609375 L 32.125 -13.5625 L 32.46875 -14.4375 L 33.125 -15.5 L 33.53125 -16.5625 L 34 -18.734375 L 34.125 -22.34375 L 33.953125 -23.390625 L 33.421875 -24.515625 L 32.703125 -26.75 L 30.40625 -29.171875 L 28.578125 -30.46875 L 27.53125 -30.9375 L 26.46875 -31.171875 L 23.640625 -31.53125 L 21.984375 -31.40625 L 19.6875 -30.828125 L 18.921875 -30.53125 L 15.96875 -28.53125 L 14.5625 -26.640625 L 14.203125 -25.578125 L 13.734375 -24.515625 L 13.5625 -23.390625 L 13.265625 -22.34375 L 13.265625 -18.734375 L 13.734375 -16.5625 L 14.265625 -15.5 L 14.5625 -14.5625 L 15.375 -13.4375 L 16.15625 -12.609375 L 17.734375 -11.3125 L 18.6875 -10.78125 L 20.8125 -9.90625 L 22.109375 -9.71875 Z M 25.34375 -9.71875 "/></g></g></g><g fill="#ffffff" fill-opacity="1"><g transform="translate(136.106804, 55.89522)"><g><path d="M 17.09375 0.46875 L 14.609375 0.296875 L 13.5 -0.125 L 12.203125 -0.296875 L 7.953125 -2.234375 L 6.953125 -2.890625 L 5.25 -4.59375 L 3.765625 -6.421875 L 2.828125 -8.78125 L 2.59375 -9.84375 L 2.46875 -11.140625 L 2.890625 -12.375 L 4.0625 -12.90625 L 5.25 -12.84375 L 6.421875 -12.96875 L 10.90625 -12.84375 L 12.078125 -12.375 L 12.96875 -11.203125 L 13.84375 -10.375 L 14.90625 -9.71875 L 15.796875 -9.3125 L 17.15625 -8.953125 L 18.921875 -8.84375 L 20.5625 -8.90625 L 22.75 -9.546875 L 23.6875 -10.078125 L 24.640625 -10.90625 L 24.984375 -12.4375 L 24.6875 -13.96875 L 23.875 -14.671875 L 21.75 -15.5625 L 20.5625 -15.625 L 19.515625 -15.796875 L 14.671875 -16.15625 L 12.546875 -16.625 L 9.1875 -17.734375 L 7.125 -18.984375 L 5.484375 -20.515625 L 4 -22.453125 L 3.234375 -24.515625 L 2.828125 -26.171875 L 2.765625 -30.109375 L 3.59375 -33.53125 L 4.1875 -34.484375 L 4.59375 -35.546875 L 5.359375 -36.3125 L 6.015625 -37.3125 L 7.078125 -38.015625 L 7.890625 -38.78125 L 9.078125 -39.484375 L 10.015625 -39.84375 L 10.96875 -40.4375 L 12.015625 -40.84375 L 16.671875 -41.78125 L 19.984375 -41.84375 L 21.28125 -41.546875 L 22.34375 -41.4375 L 23.578125 -41.203125 L 26.8125 -40.078125 L 30.59375 -37.484375 L 31.359375 -36.59375 L 31.9375 -35.65625 L 32.703125 -34.71875 L 33.65625 -32.59375 L 34.125 -30.296875 L 33.59375 -29.171875 L 32.46875 -28.46875 L 31.359375 -28.578125 L 30.296875 -28.46875 L 26.40625 -28.578125 L 24.578125 -29.171875 L 22.625 -31.234375 L 21.75 -31.9375 L 20.453125 -32.421875 L 16.671875 -32.296875 L 15.625 -32.0625 L 14.796875 -31.703125 L 13.796875 -30.9375 L 13.140625 -30.109375 L 12.96875 -28.578125 L 13.03125 -27 L 13.96875 -26.046875 L 14.859375 -25.578125 L 17.328125 -24.6875 L 23.28125 -23.921875 L 28.109375 -22.75 L 31.234375 -21.328125 L 32.234375 -20.515625 L 33.65625 -18.6875 L 34.828125 -16.5 L 35.125 -15.375 L 35.296875 -14.203125 L 35.25 -10.546875 L 35.0625 -9.484375 L 34.71875 -8.3125 L 34.25 -7.25 L 33.0625 -5.359375 L 31.40625 -3.484375 L 29.53125 -2.1875 L 26.46875 -0.53125 L 20.6875 0.59375 L 18.796875 0.640625 Z M 17.09375 0.46875 "/></g></g></g><g fill="#ffffff" fill-opacity="1"><g transform="translate(172.177831, 55.89522)"><g><path d="M 11.3125 -1.828125 L 11.25 -6.421875 L 11.375 -7.609375 L 11.203125 -11.203125 L 11.25 -12.4375 L 11.203125 -13.609375 L 11.4375 -15.375 L 11.25 -17.09375 L 11.25 -19.453125 L 11.375 -20.625 L 11.25 -21.75 L 11.4375 -23.578125 L 11.25 -30.0625 L 10.671875 -31.171875 L 9.609375 -31.828125 L 4.359375 -31.890625 L 2.828125 -31.703125 L 1.65625 -32.296875 L 1 -33.59375 L 1.0625 -39.484375 L 1.65625 -40.671875 L 2.953125 -41.25 L 20.515625 -41.140625 L 21.859375 -41.3125 L 23.046875 -41.3125 L 24.21875 -41.203125 L 25.40625 -41.203125 L 26.703125 -41.375 L 27.8125 -41.375 L 28.765625 -41.25 L 30.171875 -41.375 L 31.359375 -40.78125 L 31.9375 -39.609375 L 31.828125 -34.765625 L 31.9375 -33.53125 L 31.359375 -32.359375 L 30 -31.828125 L 26.75 -31.890625 L 25.703125 -31.765625 L 24.515625 -31.828125 L 23.515625 -31.765625 L 22.21875 -31.234375 L 21.75 -30.171875 L 21.859375 -28.875 L 21.6875 -27.703125 L 21.921875 -15.96875 L 21.75 -13.5 L 21.859375 -12.4375 L 21.75 -8.84375 L 21.578125 -7.609375 L 21.75 -6.59375 L 21.8125 -4.25 L 21.6875 -2.890625 L 21.75 -1.765625 L 21.28125 -0.59375 L 20.09375 -0.125 L 16.4375 -0.125 L 15.328125 0 L 14.140625 -0.125 L 13.03125 0 L 11.78125 -0.59375 Z M 11.3125 -1.828125 "/></g></g></g></g></g></g></g></svg>