<svg xmlns="http://www.w3.org/2000/svg" xmlns:xlink="http://www.w3.org/1999/xlink" width="500" zoomAndPan="magnify" viewBox="0 0 375 86.249997" height="115" preserveAspectRatio="xMidYMid meet" version="1.0"><defs><g/><clipPath id="d3a468de4c"><path d="M 19.363281 26.085938 L 51.335938 26.085938 L 51.335938 62.519531 L 19.363281 62.519531 Z M 19.363281 26.085938 " clip-rule="nonzero"/></clipPath><clipPath id="55aaef958f"><path d="M 0.363281 0.0859375 L 32.199219 0.0859375 L 32.199219 36.519531 L 0.363281 36.519531 Z M 0.363281 0.0859375 " clip-rule="nonzero"/></clipPath><clipPath id="f3846681de"><rect x="0" width="33" y="0" height="37"/></clipPath><clipPath id="d0e4c6017e"><rect x="0" width="361" y="0" height="62"/></clipPath></defs><g clip-path="url(#d3a468de4c)"><g transform="matrix(1, 0, 0, 1, 19, 26)"><g clip-path="url(#f3846681de)"><g clip-path="url(#55aaef958f)"><path fill="#ffffff" d="M 19.011719 0.0859375 L 17.804688 0.0859375 C 17.140625 0.160156 16.648438 0.230469 16.328125 0.300781 C 12.507812 1.113281 9.726562 4.078125 8.992188 7.886719 C 8.726562 9.269531 8.683594 10.65625 8.867188 12.050781 C 9.078125 13.703125 9.558594 15.4375 9.851562 16.785156 C 10.054688 17.703125 10.113281 18.75 9.902344 19.660156 C 9.527344 21.246094 8.46875 22.570312 7.039062 23.34375 C 6.210938 23.789062 5.320312 24.125 4.460938 24.519531 C 3.613281 24.90625 2.828125 25.402344 2.109375 25.996094 C 1.378906 26.605469 0.664062 27.550781 0.460938 28.496094 C 0.4375 28.617188 0.40625 28.742188 0.375 28.863281 L 0.375 29.472656 C 0.582031 30.660156 1.589844 31.164062 2.695312 31.21875 C 3.335938 31.25 3.96875 31.226562 4.605469 31.148438 C 5.246094 31.070312 6.078125 30.917969 7.089844 30.699219 C 7.898438 30.527344 9.195312 30.300781 9.757812 31.085938 C 10.085938 31.546875 10.042969 32.183594 9.984375 32.75 C 9.878906 33.707031 10.175781 34.773438 11.273438 34.886719 C 11.742188 34.933594 12.371094 34.796875 12.84375 34.640625 C 14.027344 34.25 15.328125 33.671875 16.613281 33.34375 C 17.3125 33.164062 18.59375 33.054688 18.679688 34.121094 C 18.710938 34.523438 18.550781 34.886719 18.402344 35.304688 C 18.242188 35.757812 18.160156 36.15625 18.597656 36.425781 C 19.101562 36.734375 20.074219 36.4375 20.585938 36.203125 C 22.972656 35.109375 24.996094 33.429688 26.640625 31.492188 C 28.457031 29.351562 29.851562 26.96875 30.828125 24.335938 C 31.402344 22.800781 31.789062 21.21875 31.996094 19.59375 C 32.023438 19.375 32.050781 19.160156 32.074219 18.941406 C 32.132812 18.472656 32.136719 17.960938 32.1875 17.46875 L 32.1875 16.1875 C 32.144531 15.636719 32.101562 15.089844 32.054688 14.542969 C 32.011719 14.03125 31.917969 13.402344 31.769531 12.660156 C 31.289062 10.25 30.339844 8.039062 28.929688 6.03125 C 26.898438 3.140625 23.898438 0.929688 20.394531 0.269531 C 19.96875 0.1875 19.472656 0.140625 19.011719 0.0859375 Z M 27.039062 15.515625 C 26.753906 15.65625 26.449219 15.71875 26.121094 15.710938 C 25.789062 15.703125 25.464844 15.625 25.140625 15.46875 C 24.816406 15.316406 24.523438 15.101562 24.253906 14.828125 C 23.984375 14.554688 23.765625 14.238281 23.59375 13.882812 C 23.421875 13.53125 23.308594 13.160156 23.257812 12.78125 C 23.210938 12.402344 23.222656 12.035156 23.304688 11.6875 C 23.382812 11.339844 23.523438 11.03125 23.71875 10.769531 C 23.917969 10.503906 24.15625 10.304688 24.441406 10.167969 C 24.726562 10.027344 25.035156 9.960938 25.363281 9.96875 C 25.695312 9.976562 26.019531 10.058594 26.34375 10.210938 C 26.667969 10.363281 26.960938 10.578125 27.230469 10.851562 C 27.5 11.128906 27.71875 11.441406 27.890625 11.796875 C 28.0625 12.152344 28.175781 12.519531 28.222656 12.902344 C 28.273438 13.28125 28.257812 13.644531 28.179688 13.996094 C 28.101562 14.34375 27.960938 14.648438 27.765625 14.914062 C 27.566406 15.175781 27.324219 15.378906 27.039062 15.515625 Z M 18.570312 16.21875 C 18.277344 16.367188 17.960938 16.4375 17.621094 16.4375 C 17.28125 16.433594 16.941406 16.359375 16.609375 16.207031 C 16.273438 16.054688 15.96875 15.84375 15.6875 15.566406 C 15.410156 15.289062 15.183594 14.972656 15.003906 14.613281 C 14.824219 14.253906 14.707031 13.878906 14.65625 13.488281 C 14.601562 13.101562 14.613281 12.726562 14.695312 12.371094 C 14.777344 12.011719 14.917969 11.695312 15.121094 11.425781 C 15.324219 11.152344 15.570312 10.941406 15.867188 10.796875 C 16.160156 10.648438 16.476562 10.578125 16.816406 10.578125 C 17.15625 10.582031 17.492188 10.65625 17.828125 10.808594 C 18.164062 10.960938 18.46875 11.171875 18.746094 11.449219 C 19.023438 11.726562 19.253906 12.042969 19.433594 12.402344 C 19.613281 12.761719 19.726562 13.136719 19.78125 13.527344 C 19.835938 13.914062 19.820312 14.289062 19.742188 14.644531 C 19.660156 15.003906 19.519531 15.316406 19.316406 15.589844 C 19.113281 15.863281 18.863281 16.074219 18.570312 16.21875 Z M 18.570312 16.21875 " fill-opacity="1" fill-rule="nonzero"/></g></g></g></g><g transform="matrix(1, 0, 0, 1, 7, 11)"><g clip-path="url(#d0e4c6017e)"><g fill="#4040ff" fill-opacity="1"><g transform="translate(0.619006, 48.988957)"><g><path d="M 12.796875 0.546875 L 11.796875 0.25 L 10.890625 0.25 L 9.78125 -0.203125 L 8.875 -0.40625 L 7 -1.109375 L 4.6875 -2.875 L 3.875 -3.625 L 2.265625 -6.25 L 1.5625 -8.0625 L 1.265625 -9.078125 L 1.15625 -10.078125 L 1.203125 -11.59375 L 1.0625 -13.046875 L 1.109375 -14.8125 L 1.609375 -15.765625 L 2.71875 -16.21875 L 3.828125 -16.21875 L 4.84375 -16.328125 L 8.015625 -16.21875 L 9.125 -15.828125 L 9.671875 -14.921875 L 9.578125 -14.015625 L 9.625 -11.734375 L 9.921875 -10.171875 L 10.28125 -9.328125 L 10.984375 -8.671875 L 11.890625 -8.15625 L 12.90625 -7.8125 L 14.3125 -7.515625 L 15.765625 -7.65625 L 17.53125 -8.515625 L 18.09375 -9.21875 L 18.5 -10.234375 L 18.6875 -25.703125 L 18.140625 -26.65625 L 17.078125 -27.21875 L 15.515625 -27.109375 L 14.0625 -27.109375 L 13.109375 -27.265625 L 11.9375 -27.765625 L 11.59375 -28.828125 L 11.484375 -29.828125 L 11.59375 -30.640625 L 11.546875 -31.84375 L 11.59375 -32.796875 L 11.484375 -33.859375 L 12.046875 -34.71875 L 13.109375 -35.171875 L 14.15625 -35.171875 L 15.671875 -35.421875 L 17.140625 -35.171875 L 18.234375 -35.328125 L 22.265625 -35.171875 L 23.328125 -35.28125 L 25.84375 -35.21875 L 27.40625 -34.8125 L 27.921875 -33.8125 L 28.015625 -25.796875 L 27.859375 -24.890625 L 27.96875 -11.546875 L 27.71875 -9.078125 L 27.0625 -6.90625 L 26.203125 -5.1875 L 24.1875 -2.96875 L 23.328125 -2.375 L 22.625 -1.765625 L 19.796875 -0.453125 L 18.890625 0.09375 L 16.875 0.40625 L 15.765625 0.40625 L 14.359375 0.546875 Z M 12.796875 0.546875 "/></g></g></g><g fill="#4040ff" fill-opacity="1"><g transform="translate(32.062731, 48.988957)"><g><path d="M 18.84375 0.609375 L 17.78125 0.5 L 15.96875 0.09375 L 14.859375 0 L 13.40625 -0.5 L 9.46875 -2.515625 L 7.8125 -3.828125 L 7.25 -4.484375 L 6.5 -5.1875 L 5.84375 -6 L 5.234375 -6.59375 L 2.921875 -11.1875 L 2.46875 -13.109375 L 2.375 -14.0625 L 2.109375 -14.96875 L 1.96875 -16.03125 L 2.109375 -20.109375 L 2.96875 -23.984375 L 3.734375 -25.90625 L 5.296875 -28.578125 L 7.765625 -31.4375 L 9.46875 -32.703125 L 10.375 -33.15625 L 11.140625 -33.71875 L 14.921875 -35.125 L 20.25 -35.875 L 21.625 -35.828125 L 24.546875 -35.328125 L 28.421875 -34.109375 L 29.171875 -33.5625 L 30.6875 -32.90625 L 31.84375 -32.09375 L 33.3125 -30.84375 L 34.71875 -29.28125 L 35.828125 -27.765625 L 36.78125 -25.90625 L 38.046875 -22.125 L 38.390625 -20.0625 L 38.546875 -17.53125 L 38.34375 -16.078125 L 38.296875 -15.015625 L 38.046875 -14.015625 L 38 -13.109375 L 37.59375 -11.1875 L 36.828125 -9.265625 L 34.625 -5.890625 L 33.90625 -5.1875 L 33.265625 -4.28125 L 31.84375 -3.078125 L 30.890625 -2.625 L 30.140625 -2.015625 L 28.46875 -1.109375 L 24.6875 0.15625 L 21.671875 0.546875 Z M 21.671875 -8.3125 L 22.671875 -8.515625 L 23.4375 -8.875 L 24.34375 -9.125 L 26.75 -10.78125 L 27.46875 -11.59375 L 27.765625 -12.34375 L 28.3125 -13.25 L 28.671875 -14.15625 L 29.078125 -16.03125 L 29.171875 -19.09375 L 29.03125 -20 L 28.578125 -20.96875 L 27.96875 -22.875 L 26 -24.9375 L 24.4375 -26.046875 L 23.53125 -26.453125 L 22.625 -26.65625 L 20.203125 -26.953125 L 18.796875 -26.859375 L 16.828125 -26.359375 L 16.171875 -26.109375 L 13.65625 -24.390625 L 12.453125 -22.78125 L 12.140625 -21.875 L 11.734375 -20.96875 L 11.59375 -20 L 11.34375 -19.09375 L 11.34375 -16.03125 L 11.734375 -14.15625 L 12.1875 -13.25 L 12.453125 -12.453125 L 13.15625 -11.484375 L 13.8125 -10.78125 L 15.171875 -9.671875 L 15.96875 -9.21875 L 17.78125 -8.46875 L 18.890625 -8.3125 Z M 21.671875 -8.3125 "/></g></g></g><g fill="#4040ff" fill-opacity="1"><g transform="translate(72.475986, 48.988957)"><g><path d="M 3.671875 -1.515625 L 3.625 -3.421875 L 3.828125 -6.453125 L 3.671875 -8.515625 L 3.78125 -12.640625 L 3.671875 -13.609375 L 3.671875 -15.625 L 3.78125 -16.578125 L 3.625 -17.640625 L 3.625 -21.671875 L 3.734375 -22.625 L 3.671875 -23.6875 L 3.78125 -24.640625 L 3.671875 -25.703125 L 3.828125 -26.75 L 3.625 -30.140625 L 3.734375 -31.59375 L 3.625 -33.765625 L 4.078125 -34.8125 L 5.09375 -35.28125 L 20.25 -35.171875 L 23.078125 -34.515625 L 24.9375 -33.515625 L 26.453125 -32.453125 L 27.15625 -31.75 L 28.375 -30.140625 L 28.671875 -29.171875 L 29.171875 -28.21875 L 29.734375 -26.359375 L 29.78125 -24.890625 L 29.078125 -21.265625 L 28.46875 -20.40625 L 27.921875 -19.40625 L 27.71875 -18.390625 L 28.171875 -17.28125 L 28.921875 -16.53125 L 29.625 -15.671875 L 30.53125 -13.90625 L 30.890625 -12.84375 L 31.09375 -11.890625 L 31.046875 -7.859375 L 30.640625 -6.859375 L 30.4375 -6 L 29.984375 -5.046875 L 28.828125 -3.375 L 28.015625 -2.625 L 27.359375 -2.109375 L 25.453125 -1.015625 L 23.78125 -0.359375 L 21.875 -0.09375 L 5.1875 0.09375 L 4.234375 -0.359375 Z M 14.015625 -21.625 L 17.78125 -21.625 L 19.5 -21.96875 L 20.359375 -22.78125 L 20.609375 -24.28125 L 20.453125 -25.65625 L 19.796875 -26.359375 L 19.203125 -26.75 L 17.640625 -27.0625 L 14.015625 -27.21875 L 12.953125 -26.65625 L 12.390625 -25.796875 L 12.5 -24.84375 L 12.5 -23.890625 L 12.296875 -23.03125 L 12.796875 -22.015625 Z M 13.859375 -8.015625 L 17.78125 -7.96875 L 20.515625 -8.21875 L 21.421875 -8.765625 L 22.078125 -9.46875 L 22.171875 -10.78125 L 22.078125 -12.1875 L 21.3125 -12.90625 L 20.5625 -13.453125 L 19.15625 -13.703125 L 13.8125 -13.703125 L 12.796875 -13.203125 L 12.453125 -12.296875 L 12.390625 -11.28125 L 12.5 -10.328125 L 12.453125 -9.46875 L 13 -8.421875 Z M 13.859375 -8.015625 "/></g></g></g><g fill="#4040ff" fill-opacity="1"><g transform="translate(105.733773, 48.988957)"><g/></g></g><g fill="#4040ff" fill-opacity="1"><g transform="translate(119.389625, 48.988957)"><g><path d="M 17.53125 0.40625 L 16.578125 0.359375 L 15.671875 0.15625 L 14.65625 -0.203125 L 13.75 -0.40625 L 11.484375 -1.359375 L 9.328125 -2.515625 L 7.0625 -4.484375 L 4.984375 -6.703125 L 2.828125 -11.09375 L 2.109375 -13.953125 L 1.8125 -17.640625 L 2.3125 -21.96875 L 2.828125 -24.03125 L 4.078125 -26.859375 L 5.046875 -28.3125 L 6.40625 -30.03125 L 8.5625 -32 L 10.03125 -33.109375 L 13.75 -34.875 L 18.640625 -35.828125 L 21.765625 -35.78125 L 22.78125 -35.625 L 23.734375 -35.578125 L 28.578125 -33.96875 L 32 -31.796875 L 33.40625 -30.328125 L 33.96875 -29.375 L 34.671875 -28.515625 L 35.125 -27.71875 L 35.671875 -26.90625 L 35.984375 -25.84375 L 36.328125 -24.9375 L 36.640625 -23.828125 L 36.28125 -22.828125 L 35.421875 -22.421875 L 33.90625 -22.265625 L 32.5 -22.421875 L 31.5 -22.375 L 30.4375 -22.421875 L 29.53125 -22.328125 L 28.375 -22.875 L 27.40625 -23.828125 L 26.859375 -24.59375 L 25.390625 -26.046875 L 24.6875 -26.609375 L 23.78125 -26.953125 L 22.21875 -27.40625 L 20.0625 -27.515625 L 16.671875 -27.0625 L 15.3125 -26.296875 L 14.109375 -25.34375 L 12.90625 -23.9375 L 12.390625 -22.984375 L 11.640625 -21.171875 L 11.28125 -19.15625 L 11.28125 -16.078125 L 11.4375 -14.96875 L 11.6875 -14.0625 L 12.046875 -13.359375 L 12.390625 -12.34375 L 13.5 -10.578125 L 14.96875 -9.265625 L 16.734375 -8.359375 L 18.546875 -7.703125 L 20 -7.5625 L 22.671875 -7.703125 L 24.4375 -8.671875 L 25.203125 -8.96875 L 26 -9.671875 L 27.15625 -10.984375 L 27.671875 -11.9375 L 28.46875 -12.75 L 29.625 -13.359375 L 30.640625 -13.296875 L 31.640625 -13.359375 L 32.65625 -13.203125 L 35.46875 -13.40625 L 36.484375 -12.75 L 36.78125 -11.84375 L 35.46875 -8.015625 L 34.421875 -6.203125 L 33.265625 -4.6875 L 31.84375 -3.28125 L 29.375 -1.515625 L 28.515625 -1.109375 L 27.46875 -0.75 L 26.5625 -0.25 L 23.578125 0.359375 L 20.0625 0.609375 Z M 17.53125 0.40625 "/></g></g></g><g fill="#4040ff" fill-opacity="1"><g transform="translate(157.837645, 48.988957)"><g><path d="M 3.828125 -1.40625 L 3.734375 -6.546875 L 3.828125 -7.5625 L 3.671875 -8.46875 L 3.828125 -9.46875 L 3.734375 -10.578125 L 3.875 -12.953125 L 3.78125 -14.109375 L 3.875 -15.671875 L 3.734375 -16.625 L 3.734375 -19.546875 L 3.828125 -20.609375 L 3.625 -23.6875 L 3.828125 -24.6875 L 3.734375 -25.546875 L 3.875 -26.65625 L 3.625 -29.6875 L 3.78125 -30.640625 L 3.671875 -31.75 L 3.671875 -32.703125 L 3.828125 -33.8125 L 4.390625 -34.671875 L 5.953125 -35.125 L 6.90625 -35.21875 L 7.90625 -35.125 L 10.890625 -35.21875 L 12.453125 -34.71875 L 13.046875 -33.65625 L 13 -32.796875 L 13.15625 -27.8125 L 13.046875 -26.90625 L 13.046875 -23.890625 L 13.453125 -22.921875 L 14.515625 -22.46875 L 19.40625 -22.53125 L 20.3125 -22.421875 L 22.328125 -22.421875 L 23.1875 -22.921875 L 23.734375 -23.9375 L 23.734375 -26.859375 L 23.9375 -27.71875 L 23.828125 -33.203125 L 24.234375 -34.671875 L 25.75 -35.125 L 26.75 -35.125 L 28.375 -35.28125 L 30.9375 -35.21875 L 32.5 -34.71875 L 33 -33.71875 L 33.109375 -32.703125 L 32.90625 -31.703125 L 33 -30.734375 L 33.203125 -29.78125 L 32.953125 -25.59375 L 33.109375 -20.65625 L 33 -19.546875 L 33.0625 -17.640625 L 32.90625 -16.578125 L 32.90625 -15.578125 L 33 -14.515625 L 32.953125 -13.5 L 33.15625 -11.59375 L 33.15625 -3.484375 L 32.953125 -1.40625 L 32.40625 -0.453125 L 31.390625 0.09375 L 27.921875 0.09375 L 26.40625 -0.046875 L 25.390625 0.046875 L 24.390625 -0.453125 L 23.890625 -1.515625 L 23.734375 -3.484375 L 23.9375 -4.984375 L 23.734375 -8.5625 L 23.890625 -9.53125 L 23.734375 -12.59375 L 23.234375 -13.609375 L 22.328125 -14.109375 L 21.359375 -14.109375 L 20.359375 -14.203125 L 19.34375 -14.109375 L 16.375 -14.109375 L 15.46875 -14.203125 L 14.40625 -14.203125 L 13.40625 -13.609375 L 12.90625 -12.546875 L 13.046875 -8.5625 L 12.953125 -7.515625 L 13 -6.40625 L 12.90625 -5.4375 L 13 -4.4375 L 12.90625 -3.53125 L 13.046875 -2.421875 L 13 -1.40625 L 12.59375 -0.40625 L 11.484375 0.046875 L 10.4375 0.15625 L 9.375 0 L 7.90625 -0.046875 L 6.34375 0.09375 L 5.390625 0.09375 L 4.234375 -0.359375 Z M 3.828125 -1.40625 "/></g></g></g><g fill="#4040ff" fill-opacity="1"><g transform="translate(194.723554, 48.988957)"><g><path d="M 3.625 -1.46875 L 3.828125 -2.46875 L 3.875 -3.484375 L 3.78125 -5.4375 L 3.78125 -6.453125 L 3.671875 -7.609375 L 3.828125 -8.515625 L 3.78125 -9.46875 L 3.875 -10.578125 L 3.734375 -11.640625 L 3.828125 -13.65625 L 3.671875 -15.625 L 3.828125 -16.671875 L 3.828125 -25.703125 L 3.734375 -26.609375 L 3.828125 -27.671875 L 3.625 -30.234375 L 3.828125 -31.703125 L 3.734375 -33.71875 L 4.234375 -34.8125 L 5.6875 -35.171875 L 12.296875 -35.328125 L 13.203125 -35.21875 L 15.171875 -35.28125 L 16.171875 -35.171875 L 18.390625 -35.28125 L 19.40625 -35.125 L 20.3125 -35.21875 L 24.34375 -35.171875 L 25.390625 -34.71875 L 25.90625 -33.71875 L 25.75 -32.75 L 25.703125 -31.640625 L 25.84375 -30.6875 L 25.953125 -28.625 L 25.390625 -27.71875 L 24.34375 -27.15625 L 14.65625 -27.109375 L 13.109375 -26.65625 L 12.59375 -25.203125 L 12.703125 -23.640625 L 13.296875 -22.71875 L 14.15625 -22.171875 L 18.140625 -22.21875 L 19.296875 -22.125 L 20.359375 -22.125 L 21.359375 -22.21875 L 23.375 -22.171875 L 24.234375 -21.625 L 24.6875 -20.65625 L 24.796875 -19.65625 L 24.6875 -15.671875 L 24.1875 -14.71875 L 23.1875 -14.15625 L 22.265625 -14.109375 L 21.21875 -14.203125 L 19.859375 -14.109375 L 17.1875 -14.265625 L 16.171875 -14.15625 L 14.203125 -14.15625 L 13.296875 -13.609375 L 12.84375 -12.546875 L 12.796875 -10.078125 L 13.25 -8.515625 L 14.3125 -7.90625 L 15.421875 -8.015625 L 16.53125 -7.90625 L 17.484375 -8.0625 L 24.140625 -7.96875 L 25.65625 -7.453125 L 26.296875 -6.453125 L 26.203125 -5.5 L 26.25 -2.375 L 26.15625 -1.40625 L 25.703125 -0.453125 L 24.640625 0.046875 L 23.6875 0.15625 L 20.609375 -0.046875 L 17.53125 0.09375 L 16.625 -0.046875 L 5.234375 0.046875 L 4.28125 -0.5 Z M 3.625 -1.46875 "/></g></g></g><g fill="#4040ff" fill-opacity="1"><g transform="translate(223.194213, 48.988957)"><g><path d="M 18.546875 0.5 L 17.59375 0.5 L 16.671875 0.296875 L 15.625 0.203125 L 14.5625 -0.15625 L 13.8125 -0.359375 L 12.796875 -0.703125 L 9.375 -2.5625 L 8.609375 -3.171875 L 7.765625 -3.734375 L 5.953125 -5.5 L 3.9375 -8.421875 L 3.578125 -9.265625 L 3.078125 -10.171875 L 2.921875 -11.09375 L 2.515625 -12.046875 L 2.015625 -14.015625 L 2.015625 -16.03125 L 1.8125 -17.640625 L 2.71875 -23.9375 L 5.046875 -28.46875 L 5.640625 -29.328125 L 7 -30.59375 L 7.609375 -31.390625 L 11.140625 -33.65625 L 12.046875 -34.015625 L 12.796875 -34.46875 L 13.75 -34.8125 L 15.71875 -35.21875 L 16.671875 -35.53125 L 17.53125 -35.625 L 22.125 -35.625 L 24.640625 -35.28125 L 26.609375 -34.71875 L 29.484375 -33.40625 L 30.59375 -32.65625 L 33.203125 -30.28125 L 35.078125 -27.71875 L 35.875 -25.796875 L 36.03125 -24.890625 L 36.4375 -23.890625 L 36.125 -22.828125 L 35.328125 -22.375 L 34.3125 -22.265625 L 29.234375 -22.375 L 28.125 -22.828125 L 27.21875 -23.78125 L 26.75 -24.640625 L 26 -25.453125 L 24.546875 -26.65625 L 23.484375 -27.015625 L 21.5625 -27.359375 L 18.4375 -27.46875 L 16.671875 -26.953125 L 15.71875 -26.5625 L 14.0625 -25.34375 L 12.796875 -23.78125 L 11.9375 -21.96875 L 11.640625 -21.0625 L 11.59375 -20.0625 L 11.234375 -19.15625 L 11.1875 -17.53125 L 11.34375 -15.171875 L 11.9375 -13.203125 L 12.34375 -12.34375 L 14.203125 -9.921875 L 14.859375 -9.21875 L 15.828125 -8.765625 L 18.546875 -7.765625 L 21.359375 -7.703125 L 22.421875 -7.8125 L 23.4375 -8.109375 L 25.140625 -8.96875 L 27.0625 -11.03125 L 27.46875 -11.890625 L 28.46875 -12.84375 L 29.578125 -13.359375 L 34.96875 -13.296875 L 36.234375 -12.75 L 36.53125 -11.84375 L 36.375 -10.890625 L 36.03125 -9.875 L 35.78125 -8.921875 L 35.328125 -8.015625 L 33.8125 -5.390625 L 32.953125 -4.734375 L 32.40625 -3.875 L 31.75 -3.21875 L 30.890625 -2.625 L 29.984375 -2.0625 L 29.234375 -1.5625 L 26.453125 -0.359375 L 21.5625 0.65625 Z M 18.546875 0.5 "/></g></g></g><g fill="#4040ff" fill-opacity="1"><g transform="translate(261.642252, 48.988957)"><g><path d="M 3.875 -1.515625 L 3.734375 -2.515625 L 3.828125 -3.421875 L 3.78125 -4.4375 L 3.875 -5.546875 L 3.625 -7.5625 L 3.78125 -9.578125 L 3.734375 -10.625 L 3.875 -11.546875 L 3.78125 -23.640625 L 3.625 -24.6875 L 3.875 -26.703125 L 3.734375 -27.71875 L 3.671875 -28.671875 L 3.828125 -31.703125 L 3.734375 -32.703125 L 3.734375 -33.765625 L 4.4375 -34.671875 L 5.234375 -35.328125 L 9.328125 -35.21875 L 10.328125 -35.328125 L 11.390625 -35.21875 L 12.296875 -34.71875 L 12.796875 -33.609375 L 12.84375 -32.609375 L 13 -31.640625 L 12.84375 -24.34375 L 13 -23.4375 L 12.953125 -22.375 L 13.859375 -21.8125 L 15.0625 -21.875 L 17.28125 -22.328125 L 18.140625 -22.71875 L 19.046875 -23.28125 L 19.796875 -23.9375 L 20.40625 -24.734375 L 21.0625 -25.5 L 21.46875 -26.453125 L 21.96875 -28.46875 L 22.21875 -30.59375 L 22.078125 -33.65625 L 22.625 -34.71875 L 23.828125 -35.328125 L 25.296875 -35.171875 L 29.875 -35.328125 L 30.9375 -34.765625 L 31.34375 -33.609375 L 31.390625 -31.59375 L 31.1875 -30.640625 L 31.296875 -29.53125 L 30.984375 -27.40625 L 30.9375 -26.453125 L 30.4375 -24.546875 L 29.984375 -23.484375 L 29.734375 -22.578125 L 29.234375 -21.625 L 28.125 -19.90625 L 26.65625 -18.4375 L 25.75 -17.890625 L 25.296875 -16.734375 L 25.296875 -15.625 L 27.0625 -13.109375 L 28.515625 -10.484375 L 29.125 -9.578125 L 29.53125 -8.671875 L 30.140625 -7.859375 L 31.09375 -6.140625 L 31.84375 -5.296875 L 32.25 -4.328125 L 32.75 -3.484375 L 33.453125 -2.71875 L 33.90625 -1.515625 L 33.65625 -0.359375 L 32.796875 0.09375 L 31.75 0 L 26.15625 0 L 24.4375 -0.359375 L 23.484375 -1.109375 L 22.125 -3.734375 L 21.46875 -4.578125 L 21.015625 -5.4375 L 20.40625 -6.296875 L 19.15625 -8.921875 L 17.078125 -12.34375 L 16.125 -13.109375 L 14.609375 -13.40625 L 13.359375 -12.796875 L 12.90625 -11.890625 L 12.90625 -8.765625 L 12.796875 -7.65625 L 12.953125 -1.5625 L 12.453125 -0.453125 L 10.984375 0.046875 L 5.6875 0.09375 L 4.234375 -0.453125 Z M 3.875 -1.515625 "/></g></g></g><g fill="#4040ff" fill-opacity="1"><g transform="translate(296.562906, 48.988957)"><g><path d="M 3.625 -1.46875 L 3.828125 -2.46875 L 3.875 -3.484375 L 3.78125 -5.4375 L 3.78125 -6.453125 L 3.671875 -7.609375 L 3.828125 -8.515625 L 3.78125 -9.46875 L 3.875 -10.578125 L 3.734375 -11.640625 L 3.828125 -13.65625 L 3.671875 -15.625 L 3.828125 -16.671875 L 3.828125 -25.703125 L 3.734375 -26.609375 L 3.828125 -27.671875 L 3.625 -30.234375 L 3.828125 -31.703125 L 3.734375 -33.71875 L 4.234375 -34.8125 L 5.6875 -35.171875 L 12.296875 -35.328125 L 13.203125 -35.21875 L 15.171875 -35.28125 L 16.171875 -35.171875 L 18.390625 -35.28125 L 19.40625 -35.125 L 20.3125 -35.21875 L 24.34375 -35.171875 L 25.390625 -34.71875 L 25.90625 -33.71875 L 25.75 -32.75 L 25.703125 -31.640625 L 25.84375 -30.6875 L 25.953125 -28.625 L 25.390625 -27.71875 L 24.34375 -27.15625 L 14.65625 -27.109375 L 13.109375 -26.65625 L 12.59375 -25.203125 L 12.703125 -23.640625 L 13.296875 -22.71875 L 14.15625 -22.171875 L 18.140625 -22.21875 L 19.296875 -22.125 L 20.359375 -22.125 L 21.359375 -22.21875 L 23.375 -22.171875 L 24.234375 -21.625 L 24.6875 -20.65625 L 24.796875 -19.65625 L 24.6875 -15.671875 L 24.1875 -14.71875 L 23.1875 -14.15625 L 22.265625 -14.109375 L 21.21875 -14.203125 L 19.859375 -14.109375 L 17.1875 -14.265625 L 16.171875 -14.15625 L 14.203125 -14.15625 L 13.296875 -13.609375 L 12.84375 -12.546875 L 12.796875 -10.078125 L 13.25 -8.515625 L 14.3125 -7.90625 L 15.421875 -8.015625 L 16.53125 -7.90625 L 17.484375 -8.0625 L 24.140625 -7.96875 L 25.65625 -7.453125 L 26.296875 -6.453125 L 26.203125 -5.5 L 26.25 -2.375 L 26.15625 -1.40625 L 25.703125 -0.453125 L 24.640625 0.046875 L 23.6875 0.15625 L 20.609375 -0.046875 L 17.53125 0.09375 L 16.625 -0.046875 L 5.234375 0.046875 L 4.28125 -0.5 Z M 3.625 -1.46875 "/></g></g></g><g fill="#4040ff" fill-opacity="1"><g transform="translate(325.436709, 48.988957)"><g><path d="M 3.875 -1.609375 L 3.734375 -5.546875 L 3.828125 -6.59375 L 3.625 -9.53125 L 3.78125 -11.59375 L 3.625 -12.703125 L 3.671875 -14.609375 L 3.78125 -15.671875 L 3.78125 -18.1875 L 3.625 -19.65625 L 3.78125 -33.765625 L 4.1875 -34.8125 L 5.140625 -35.28125 L 6.25 -35.21875 L 7.203125 -35.375 L 9.265625 -35.171875 L 10.234375 -35.328125 L 13.25 -35.21875 L 14.109375 -35.328125 L 15.21875 -35.21875 L 16.21875 -35.328125 L 17.328125 -35.28125 L 18.796875 -35.328125 L 20.0625 -35.21875 L 24.234375 -34.359375 L 26 -33.453125 L 28.515625 -31.546875 L 28.96875 -30.78125 L 29.6875 -30.03125 L 31.046875 -27.265625 L 31.296875 -26.25 L 31.4375 -25.296875 L 31.703125 -24.34375 L 31.640625 -20.359375 L 31.09375 -18.4375 L 30.734375 -17.59375 L 30.1875 -16.671875 L 29.828125 -15.71875 L 29.234375 -14.859375 L 27.8125 -13.5 L 27.265625 -12.453125 L 27.40625 -11.234375 L 28.921875 -8.609375 L 29.578125 -7.8125 L 30.078125 -6.90625 L 30.6875 -6 L 31.140625 -5.140625 L 32.75 -2.671875 L 33.40625 -1.40625 L 33.203125 -0.359375 L 32.15625 -0.09375 L 31.046875 0 L 29.03125 0 L 28.015625 -0.09375 L 26.90625 0 L 25.09375 -0.09375 L 23.828125 -0.40625 L 22.828125 -1.3125 L 22.21875 -2.109375 L 21.765625 -2.96875 L 21.109375 -3.9375 L 19.703125 -6.453125 L 19.34375 -7.40625 L 18.046875 -9.171875 L 17.234375 -10.03125 L 15.96875 -10.4375 L 15.0625 -10.375 L 14.15625 -10.375 L 13.15625 -9.875 L 12.703125 -8.875 L 12.796875 -5.75 L 12.640625 -3.578125 L 12.84375 -2.515625 L 12.75 -1.46875 L 12.390625 -0.5 L 10.828125 0 L 9.328125 0 L 8.265625 -0.09375 L 6.203125 0.046875 L 5.234375 0 L 4.234375 -0.5 Z M 14.15625 -18.546875 L 15.265625 -18.546875 L 16.28125 -18.390625 L 20.203125 -18.75 L 20.96875 -19.09375 L 21.5625 -19.703125 L 22.125 -20.5625 L 22.53125 -21.5625 L 22.671875 -22.921875 L 22.578125 -24.390625 L 22.21875 -25.203125 L 21.71875 -25.953125 L 20.15625 -26.90625 L 17.84375 -27.21875 L 15.0625 -27.265625 L 14.265625 -27.21875 L 13.25 -26.703125 L 12.640625 -25.703125 L 12.796875 -20.0625 L 13.296875 -19 Z M 14.15625 -18.546875 "/></g></g></g></g></g></svg>