<svg xmlns="http://www.w3.org/2000/svg" xmlns:xlink="http://www.w3.org/1999/xlink" width="400" zoomAndPan="magnify" viewBox="0 0 300 86.249997" height="115" preserveAspectRatio="xMidYMid meet" version="1.0"><defs><g/><clipPath id="30d4524da3"><path d="M 0.195312 0.378906 L 293.726562 0.378906 L 293.726562 81 L 0.195312 81 Z M 0.195312 0.378906 " clip-rule="nonzero"/></clipPath><clipPath id="fa9a84ffbf"><path d="M 21.199219 0.507812 L 272.800781 0.507812 C 278.320312 0.507812 283.617188 2.703125 287.523438 6.605469 C 291.425781 10.511719 293.621094 15.804688 293.621094 21.328125 L 293.621094 60.179688 C 293.621094 65.699219 291.425781 70.996094 287.523438 74.898438 C 283.617188 78.804688 278.320312 81 272.800781 81 L 21.199219 81 C 15.679688 81 10.382812 78.804688 6.476562 74.898438 C 2.574219 70.996094 0.378906 65.699219 0.378906 60.179688 L 0.378906 21.328125 C 0.378906 15.804688 2.574219 10.511719 6.476562 6.605469 C 10.382812 2.703125 15.679688 0.507812 21.199219 0.507812 Z M 21.199219 0.507812 " clip-rule="nonzero"/></clipPath><clipPath id="34f3f00399"><path d="M 0.195312 0.378906 L 293.726562 0.378906 L 293.726562 81 L 0.195312 81 Z M 0.195312 0.378906 " clip-rule="nonzero"/></clipPath><clipPath id="197e9cf769"><path d="M 21.199219 0.507812 L 272.800781 0.507812 C 278.320312 0.507812 283.617188 2.703125 287.523438 6.605469 C 291.425781 10.511719 293.621094 15.804688 293.621094 21.328125 L 293.621094 60.179688 C 293.621094 65.699219 291.425781 70.996094 287.523438 74.898438 C 283.617188 78.804688 278.320312 81 272.800781 81 L 21.199219 81 C 15.679688 81 10.382812 78.804688 6.476562 74.898438 C 2.574219 70.996094 0.378906 65.699219 0.378906 60.179688 L 0.378906 21.328125 C 0.378906 15.804688 2.574219 10.511719 6.476562 6.605469 C 10.382812 2.703125 15.679688 0.507812 21.199219 0.507812 Z M 21.199219 0.507812 " clip-rule="nonzero"/></clipPath><clipPath id="c3dbd589c6"><rect x="0" width="294" y="0" height="81"/></clipPath><clipPath id="610cd8863b"><rect x="0" width="202" y="0" height="70"/></clipPath><clipPath id="734a90a533"><rect x="0" width="294" y="0" height="82"/></clipPath></defs><g transform="matrix(1, 0, 0, 1, 3, 2)"><g clip-path="url(#734a90a533)"><g clip-path="url(#30d4524da3)"><g clip-path="url(#fa9a84ffbf)"><g><g clip-path="url(#c3dbd589c6)"><g clip-path="url(#34f3f00399)"><g clip-path="url(#197e9cf769)"><path fill="#4040ff" d="M 0.378906 0.507812 L 293.726562 0.507812 L 293.726562 81 L 0.378906 81 Z M 0.378906 0.507812 " fill-opacity="1" fill-rule="nonzero"/></g></g></g></g></g></g><g transform="matrix(1, 0, 0, 1, 19, 6)"><g clip-path="url(#610cd8863b)"><g fill="#ffffff" fill-opacity="1"><g transform="translate(0.847356, 54.138172)"><g><path d="M 19.9375 0.578125 L 18.78125 0.234375 L 15.515625 -0.34375 L 14.53125 -0.625 L 10.5625 -2.921875 L 8.671875 -4.25 L 6.375 -6.65625 L 5.046875 -8.609375 L 4.015625 -10.5625 L 2.40625 -15.96875 L 2.125 -19.984375 L 2.1875 -21.828125 L 3.21875 -27.515625 L 5.34375 -31.828125 L 5.96875 -32.6875 L 6.828125 -33.546875 L 7.578125 -34.46875 L 10.109375 -36.703125 L 13.265625 -38.65625 L 17.6875 -40.265625 L 18.78125 -40.328125 L 19.765625 -40.671875 L 20.90625 -40.71875 L 26.25 -40.5 L 28.953125 -39.75 L 30.15625 -39.515625 L 34.171875 -37.390625 L 35.03125 -36.703125 L 35.953125 -35.84375 L 37.21875 -34.8125 L 39.515625 -31.46875 L 40.03125 -30.4375 L 40.84375 -28.09375 L 40.5 -27.109375 L 39.0625 -26.484375 L 36.296875 -26.65625 L 34.578125 -26.421875 L 32.796875 -26.484375 L 31.421875 -26.875 L 30.21875 -27.859375 L 29.46875 -28.828125 L 28.78125 -29.578125 L 27.6875 -30.328125 L 26.59375 -30.78125 L 24.46875 -31.359375 L 20.96875 -31.25 L 19.984375 -30.78125 L 18.890625 -30.671875 L 17.921875 -30.15625 L 15.90625 -28.71875 L 14.125 -26.015625 L 13.203125 -23.953125 L 12.8125 -21.71875 L 12.859375 -18.375 L 13.15625 -16.546875 L 13.609375 -14.875 L 14.703125 -12.8125 L 15.328125 -12 L 17.0625 -10.390625 L 20.15625 -9.125 L 23.09375 -8.78125 L 24.578125 -8.84375 L 26.828125 -9.359375 L 28.71875 -10.109375 L 29.515625 -10.734375 L 30.390625 -11.71875 L 30.953125 -12.6875 L 30.78125 -13.671875 L 29.921875 -14.078125 L 28.890625 -14.25 L 26.015625 -14.015625 L 24.359375 -14.125 L 23.3125 -14.765625 L 22.796875 -15.6875 L 22.796875 -21.140625 L 23.3125 -22.234375 L 24.46875 -22.796875 L 26.65625 -22.96875 L 30.09375 -22.75 L 37.84375 -22.921875 L 39.0625 -22.75 L 40.265625 -22.6875 L 41.359375 -22.109375 L 41.921875 -21.140625 L 42.046875 -18.953125 L 41.921875 -17.859375 L 41.921875 -16.71875 L 41.703125 -15.6875 L 41.640625 -14.703125 L 41.1875 -12.515625 L 40.03125 -9.125 L 39.34375 -8.328125 L 38.828125 -7.296875 L 38.25 -6.3125 L 37.5625 -5.515625 L 36.703125 -4.828125 L 35.84375 -3.90625 L 34.0625 -2.53125 L 29.984375 -0.453125 L 25.671875 0.578125 Z M 19.9375 0.578125 "/></g></g></g><g fill="#ffffff" fill-opacity="1"><g transform="translate(44.83962, 54.138172)"><g><path d="M 4.359375 -1.609375 L 4.25 -7.46875 L 4.359375 -8.609375 L 4.1875 -9.65625 L 4.359375 -10.796875 L 4.25 -12.0625 L 4.421875 -14.765625 L 4.3125 -16.078125 L 4.421875 -17.859375 L 4.25 -18.953125 L 4.25 -22.28125 L 4.359375 -23.484375 L 4.140625 -27 L 4.359375 -28.140625 L 4.25 -29.125 L 4.421875 -30.390625 L 4.140625 -33.828125 L 4.3125 -34.921875 L 4.1875 -36.1875 L 4.1875 -37.28125 L 4.359375 -38.546875 L 5 -39.515625 L 6.78125 -40.03125 L 7.875 -40.15625 L 9.015625 -40.03125 L 12.40625 -40.15625 L 14.1875 -39.578125 L 14.875 -38.375 L 14.8125 -37.390625 L 14.984375 -31.703125 L 14.875 -30.671875 L 14.875 -27.21875 L 15.328125 -26.140625 L 16.546875 -25.609375 L 22.109375 -25.671875 L 23.140625 -25.5625 L 25.4375 -25.5625 L 26.421875 -26.140625 L 27.046875 -27.28125 L 27.046875 -30.609375 L 27.28125 -31.59375 L 27.171875 -37.84375 L 27.625 -39.515625 L 29.34375 -40.03125 L 30.5 -40.03125 L 32.34375 -40.203125 L 35.265625 -40.15625 L 37.046875 -39.578125 L 37.625 -38.421875 L 37.734375 -37.28125 L 37.5 -36.125 L 37.625 -35.03125 L 37.84375 -33.953125 L 37.5625 -29.171875 L 37.734375 -23.546875 L 37.625 -22.28125 L 37.671875 -20.109375 L 37.5 -18.890625 L 37.5 -17.75 L 37.625 -16.546875 L 37.5625 -15.390625 L 37.796875 -13.203125 L 37.796875 -3.96875 L 37.5625 -1.609375 L 36.9375 -0.515625 L 35.78125 0.109375 L 31.828125 0.109375 L 30.09375 -0.0625 L 28.953125 0.0625 L 27.796875 -0.515625 L 27.21875 -1.71875 L 27.046875 -3.96875 L 27.28125 -5.6875 L 27.046875 -9.765625 L 27.21875 -10.859375 L 27.046875 -14.359375 L 26.484375 -15.515625 L 25.4375 -16.078125 L 24.359375 -16.078125 L 23.203125 -16.203125 L 22.0625 -16.078125 L 18.671875 -16.078125 L 17.640625 -16.203125 L 16.421875 -16.203125 L 15.28125 -15.515625 L 14.703125 -14.296875 L 14.875 -9.765625 L 14.765625 -8.5625 L 14.8125 -7.296875 L 14.703125 -6.203125 L 14.8125 -5.046875 L 14.703125 -4.015625 L 14.875 -2.75 L 14.8125 -1.609375 L 14.359375 -0.453125 L 13.09375 0.0625 L 11.890625 0.171875 L 10.6875 0 L 9.015625 -0.0625 L 7.234375 0.109375 L 6.140625 0.109375 L 4.828125 -0.40625 Z M 4.359375 -1.609375 "/></g></g></g><g fill="#ffffff" fill-opacity="1"><g transform="translate(86.879221, 54.138172)"><g><path d="M 21.484375 0.6875 L 20.28125 0.578125 L 18.203125 0.109375 L 16.9375 0 L 15.28125 -0.578125 L 10.796875 -2.875 L 8.90625 -4.359375 L 8.265625 -5.109375 L 7.40625 -5.921875 L 6.65625 -6.828125 L 5.96875 -7.53125 L 3.328125 -12.75 L 2.8125 -14.9375 L 2.703125 -16.03125 L 2.40625 -17.0625 L 2.234375 -18.265625 L 2.40625 -22.921875 L 3.390625 -27.34375 L 4.25 -29.515625 L 6.03125 -32.5625 L 8.84375 -35.84375 L 10.796875 -37.28125 L 11.828125 -37.796875 L 12.6875 -38.421875 L 17 -40.03125 L 23.09375 -40.890625 L 24.640625 -40.84375 L 27.96875 -40.265625 L 32.390625 -38.890625 L 33.25 -38.25 L 34.984375 -37.5 L 36.296875 -36.59375 L 37.96875 -35.15625 L 39.578125 -33.375 L 40.84375 -31.640625 L 41.921875 -29.515625 L 43.359375 -25.21875 L 43.765625 -22.859375 L 43.9375 -19.984375 L 43.703125 -18.328125 L 43.65625 -17.109375 L 43.359375 -15.96875 L 43.3125 -14.9375 L 42.84375 -12.75 L 41.984375 -10.5625 L 39.453125 -6.71875 L 38.65625 -5.921875 L 37.90625 -4.875 L 36.296875 -3.5 L 35.203125 -2.984375 L 34.34375 -2.296875 L 32.453125 -1.265625 L 28.140625 0.171875 L 24.703125 0.625 Z M 24.703125 -9.484375 L 25.84375 -9.703125 L 26.703125 -10.109375 L 27.75 -10.390625 L 30.5 -12.296875 L 31.296875 -13.203125 L 31.640625 -14.078125 L 32.28125 -15.109375 L 32.6875 -16.140625 L 33.140625 -18.265625 L 33.25 -21.765625 L 33.078125 -22.796875 L 32.5625 -23.890625 L 31.875 -26.078125 L 29.640625 -28.4375 L 27.859375 -29.6875 L 26.828125 -30.15625 L 25.796875 -30.390625 L 23.03125 -30.734375 L 21.421875 -30.609375 L 19.1875 -30.046875 L 18.4375 -29.75 L 15.5625 -27.796875 L 14.1875 -25.96875 L 13.84375 -24.921875 L 13.390625 -23.890625 L 13.203125 -22.796875 L 12.921875 -21.765625 L 12.921875 -18.265625 L 13.390625 -16.140625 L 13.90625 -15.109375 L 14.1875 -14.1875 L 14.984375 -13.09375 L 15.734375 -12.296875 L 17.28125 -11.03125 L 18.203125 -10.515625 L 20.28125 -9.65625 L 21.53125 -9.484375 Z M 24.703125 -9.484375 "/></g></g></g><g fill="#ffffff" fill-opacity="1"><g transform="translate(132.939013, 54.138172)"><g><path d="M 16.65625 0.453125 L 14.25 0.28125 L 13.15625 -0.109375 L 11.890625 -0.28125 L 7.75 -2.1875 L 6.78125 -2.8125 L 5.109375 -4.484375 L 3.671875 -6.265625 L 2.75 -8.5625 L 2.53125 -9.59375 L 2.40625 -10.859375 L 2.8125 -12.0625 L 3.96875 -12.578125 L 5.109375 -12.515625 L 6.265625 -12.640625 L 10.625 -12.515625 L 11.78125 -12.0625 L 12.640625 -10.90625 L 13.5 -10.109375 L 14.53125 -9.484375 L 15.390625 -9.078125 L 16.71875 -8.734375 L 18.4375 -8.609375 L 20.046875 -8.671875 L 22.171875 -9.3125 L 23.09375 -9.828125 L 24.015625 -10.625 L 24.359375 -12.125 L 24.0625 -13.609375 L 23.265625 -14.296875 L 21.1875 -15.15625 L 20.046875 -15.21875 L 19.015625 -15.390625 L 14.296875 -15.734375 L 12.234375 -16.203125 L 8.953125 -17.28125 L 6.953125 -18.5 L 5.34375 -19.984375 L 3.90625 -21.890625 L 3.15625 -23.890625 L 2.75 -25.5 L 2.703125 -29.34375 L 3.5 -32.6875 L 4.078125 -33.59375 L 4.484375 -34.640625 L 5.234375 -35.375 L 5.859375 -36.359375 L 6.890625 -37.046875 L 7.703125 -37.796875 L 8.84375 -38.484375 L 9.765625 -38.828125 L 10.6875 -39.40625 L 11.71875 -39.796875 L 16.25 -40.71875 L 19.46875 -40.78125 L 20.734375 -40.5 L 21.765625 -40.375 L 22.96875 -40.15625 L 26.140625 -39.0625 L 29.8125 -36.53125 L 30.5625 -35.671875 L 31.125 -34.75 L 31.875 -33.828125 L 32.796875 -31.765625 L 33.25 -29.515625 L 32.734375 -28.4375 L 31.640625 -27.75 L 30.5625 -27.859375 L 29.515625 -27.75 L 25.734375 -27.859375 L 23.953125 -28.4375 L 22.0625 -30.4375 L 21.1875 -31.125 L 19.9375 -31.59375 L 16.25 -31.46875 L 15.21875 -31.25 L 14.421875 -30.90625 L 13.4375 -30.15625 L 12.8125 -29.34375 L 12.640625 -27.859375 L 12.6875 -26.3125 L 13.609375 -25.390625 L 14.46875 -24.921875 L 16.890625 -24.0625 L 22.6875 -23.3125 L 27.390625 -22.171875 L 30.4375 -20.796875 L 31.421875 -19.984375 L 32.796875 -18.203125 L 33.953125 -16.078125 L 34.234375 -14.984375 L 34.40625 -13.84375 L 34.34375 -10.28125 L 34.171875 -9.25 L 33.828125 -8.09375 L 33.375 -7.0625 L 32.21875 -5.234375 L 30.609375 -3.390625 L 28.78125 -2.125 L 25.796875 -0.515625 L 20.15625 0.578125 L 18.328125 0.625 Z M 16.65625 0.453125 "/></g></g></g><g fill="#ffffff" fill-opacity="1"><g transform="translate(168.086821, 54.138172)"><g><path d="M 11.03125 -1.78125 L 10.96875 -6.265625 L 11.078125 -7.40625 L 10.90625 -10.90625 L 10.96875 -12.125 L 10.90625 -13.265625 L 11.140625 -14.984375 L 10.96875 -16.65625 L 10.96875 -18.953125 L 11.078125 -20.109375 L 10.96875 -21.1875 L 11.140625 -22.96875 L 10.96875 -29.296875 L 10.390625 -30.390625 L 9.359375 -31.015625 L 4.25 -31.078125 L 2.75 -30.90625 L 1.609375 -31.46875 L 0.96875 -32.734375 L 1.03125 -38.484375 L 1.609375 -39.625 L 2.875 -40.203125 L 19.984375 -40.09375 L 21.3125 -40.265625 L 22.453125 -40.265625 L 23.609375 -40.15625 L 24.75 -40.15625 L 26.015625 -40.328125 L 27.109375 -40.328125 L 28.03125 -40.203125 L 29.40625 -40.328125 L 30.5625 -39.75 L 31.125 -38.59375 L 31.015625 -33.890625 L 31.125 -32.6875 L 30.5625 -31.53125 L 29.234375 -31.015625 L 26.078125 -31.078125 L 25.046875 -30.953125 L 23.890625 -31.015625 L 22.921875 -30.953125 L 21.65625 -30.4375 L 21.1875 -29.40625 L 21.3125 -28.140625 L 21.140625 -27 L 21.359375 -15.5625 L 21.1875 -13.15625 L 21.3125 -12.125 L 21.1875 -8.609375 L 21.015625 -7.40625 L 21.1875 -6.4375 L 21.25 -4.140625 L 21.140625 -2.8125 L 21.1875 -1.71875 L 20.734375 -0.578125 L 19.59375 -0.109375 L 16.03125 -0.109375 L 14.9375 0 L 13.78125 -0.109375 L 12.6875 0 L 11.484375 -0.578125 Z M 11.03125 -1.78125 "/></g></g></g></g></g></g></g><path fill="#ffffff" d="M 250.699219 32.222656 L 257.714844 25.207031 C 257.714844 25.207031 264.734375 18.191406 271.75 25.207031 C 278.765625 32.222656 271.75 39.242188 271.75 39.242188 L 262.394531 48.597656 C 262.394531 48.597656 255.375 55.613281 248.359375 48.597656 C 247.042969 47.28125 246.230469 45.53125 246.230469 45.53125 L 250.148438 41.617188 C 250.148438 41.617188 249.992188 43.210938 251.867188 45.085938 C 251.867188 45.085938 255.375 48.597656 258.886719 45.085938 L 268.242188 35.730469 C 268.242188 35.730469 271.75 32.222656 268.242188 28.714844 C 264.734375 25.207031 261.222656 28.714844 261.222656 28.714844 L 256.863281 33.074219 C 256.863281 33.074219 254.695312 31.296875 250.261719 32.660156 Z M 250.699219 32.222656 " fill-opacity="1" fill-rule="nonzero"/><path fill="#ffffff" d="M 257.535156 53.273438 L 250.515625 60.289062 C 250.515625 60.289062 243.5 67.308594 236.484375 60.289062 C 229.46875 53.273438 236.484375 46.257812 236.484375 46.257812 L 245.839844 36.902344 C 245.839844 36.902344 252.855469 29.882812 259.875 36.902344 C 261.1875 38.21875 262.003906 39.964844 262.003906 39.964844 L 258.082031 43.882812 C 258.082031 43.882812 258.238281 42.285156 256.363281 40.410156 C 256.363281 40.410156 252.855469 36.902344 249.347656 40.410156 L 239.992188 49.765625 C 239.992188 49.765625 236.484375 53.273438 239.992188 56.78125 C 243.5 60.289062 247.007812 56.78125 247.007812 56.78125 L 251.367188 52.421875 C 251.367188 52.421875 253.539062 54.199219 257.972656 52.835938 Z M 257.535156 53.273438 " fill-opacity="1" fill-rule="nonzero"/></svg>