<svg xmlns="http://www.w3.org/2000/svg" xmlns:xlink="http://www.w3.org/1999/xlink" width="100" zoomAndPan="magnify" viewBox="0 0 75 74.999997" height="100" preserveAspectRatio="xMidYMid meet" version="1.0"><defs><clipPath id="2036588448"><path d="M 1.800781 1.800781 L 73.050781 1.800781 L 73.050781 73.050781 L 1.800781 73.050781 Z M 1.800781 1.800781 " clip-rule="nonzero"/></clipPath><clipPath id="c95294bda1"><path d="M 34.386719 41.324219 L 40.386719 41.324219 L 40.386719 47.324219 L 34.386719 47.324219 Z M 34.386719 41.324219 " clip-rule="nonzero"/></clipPath></defs><g clip-path="url(#2036588448)"><path fill="#0a66c2" d="M 37.484375 1.816406 C 57.203125 1.816406 73.1875 17.800781 73.1875 37.519531 C 73.1875 57.238281 57.203125 73.222656 37.484375 73.222656 C 17.765625 73.222656 1.78125 57.238281 1.78125 37.519531 C 1.78125 17.800781 17.765625 1.816406 37.484375 1.816406 Z M 37.484375 15.886719 C 40.191406 15.886719 42.390625 18.082031 42.390625 20.789062 C 42.390625 23.5 40.195312 25.695312 37.484375 25.695312 C 34.777344 25.695312 32.582031 23.5 32.582031 20.789062 C 32.582031 18.085938 34.777344 15.886719 37.484375 15.886719 Z M 33.027344 29.363281 L 41.945312 29.363281 L 41.945312 52.042969 L 45.511719 52.042969 L 45.511719 59.148438 L 29.464844 59.148438 L 29.464844 52.042969 L 33.027344 52.042969 L 33.027344 33.085938 L 29.464844 33.085938 L 29.464844 29.363281 Z M 37.484375 5.261719 C 19.671875 5.261719 5.230469 19.699219 5.230469 37.515625 C 5.230469 55.332031 19.667969 69.769531 37.484375 69.769531 C 55.300781 69.769531 69.742188 55.328125 69.742188 37.515625 C 69.742188 19.699219 55.300781 5.261719 37.484375 5.261719 Z M 37.484375 5.261719 " fill-opacity="1" fill-rule="nonzero"/></g><g clip-path="url(#c95294bda1)"><path fill="#0a66c2" d="M 34.386719 41.324219 L 40.609375 41.324219 L 40.609375 47.546875 L 34.386719 47.546875 Z M 34.386719 41.324219 " fill-opacity="1" fill-rule="nonzero"/></g></svg>