<svg width="20" height="20" viewBox="0 0 20 20" fill="none" xmlns="http://www.w3.org/2000/svg">
<path d="M2.49992 3.33203C2.07256 3.33203 1.72033 3.65373 1.67219 4.06818L1.66659 4.16536V9.58203C1.66659 11.1392 2.88682 12.4113 4.42322 12.4944L4.58325 12.4987H15.4874L12.744 15.2428C12.4436 15.5432 12.4205 16.0159 12.6747 16.3428L12.744 16.4213C13.0444 16.7217 13.5171 16.7448 13.844 16.4906L13.9225 16.4213L18.0892 12.2546C18.1187 12.2251 18.1455 12.194 18.1696 12.1615L18.2294 12.0687L18.2739 11.9748L18.3034 11.887L18.3241 11.7891L18.3299 11.7402L18.3333 11.6654L18.3309 11.6027L18.3164 11.4981L18.2918 11.4052L18.2552 11.3127L18.2116 11.2314L18.1585 11.1546L18.0892 11.0761L13.9225 6.90944C13.5971 6.58401 13.0694 6.58401 12.744 6.90944C12.4436 7.20985 12.4205 7.68254 12.6747 8.00945L12.744 8.08795L15.4874 10.832H4.58325C3.93351 10.832 3.39955 10.3363 3.33898 9.70241L3.33325 9.58203V4.16536C3.33325 3.70513 2.96016 3.33203 2.49992 3.33203Z" fill="#9D7575"/>
</svg>
