<svg width="35" height="35" viewBox="0 0 35 35" fill="none" xmlns="http://www.w3.org/2000/svg">
<path opacity="0.2" d="M28.4374 14.218C28.4389 15.8753 28.0631 17.5111 27.3385 19.0016C26.6138 20.492 25.5594 21.7979 24.2552 22.8204C23.8569 23.1291 23.5341 23.5244 23.3112 23.9763C23.0883 24.4283 22.9711 24.925 22.9687 25.429V26.2493C22.9687 26.5394 22.8534 26.8176 22.6483 27.0227C22.4432 27.2278 22.165 27.343 21.8749 27.343H13.1249C12.8348 27.343 12.5566 27.2278 12.3515 27.0227C12.1464 26.8176 12.0312 26.5394 12.0312 26.2493V25.429C12.0307 24.9278 11.9159 24.4334 11.6955 23.9832C11.4752 23.5331 11.1551 23.1392 10.7597 22.8313C9.45946 21.8156 8.4063 20.5184 7.67934 19.0373C6.95238 17.5561 6.57051 15.9295 6.56242 14.2795C6.52961 8.35142 11.3093 3.41725 17.2361 3.28053C18.6944 3.24533 20.1451 3.50224 21.5027 4.03612C22.8603 4.57 24.0974 5.37007 25.1412 6.38924C26.1849 7.40841 27.0143 8.62607 27.5804 9.97057C28.1464 11.3151 28.4378 12.7592 28.4374 14.218Z" fill="#4040FF"/>
<path d="M24.0624 31.7183C24.0624 32.0084 23.9472 32.2866 23.7421 32.4917C23.537 32.6969 23.2588 32.8121 22.9687 32.8121H12.0312C11.7411 32.8121 11.4629 32.6969 11.2578 32.4917C11.0527 32.2866 10.9374 32.0084 10.9374 31.7183C10.9374 31.4283 11.0527 31.1501 11.2578 30.9449C11.4629 30.7398 11.7411 30.6246 12.0312 30.6246H22.9687C23.2588 30.6246 23.537 30.7398 23.7421 30.9449C23.9472 31.1501 24.0624 31.4283 24.0624 31.7183ZM29.5312 14.2183C29.5359 16.0417 29.124 17.842 28.3269 19.4819C27.5298 21.1218 26.3686 22.5579 24.932 23.6806C24.6633 23.8866 24.4453 24.1512 24.2946 24.4542C24.1439 24.7573 24.0645 25.0908 24.0624 25.4293V26.2496C24.0624 26.8297 23.832 27.3861 23.4217 27.7964C23.0115 28.2066 22.4551 28.4371 21.8749 28.4371H13.1249C12.5448 28.4371 11.9884 28.2066 11.5781 27.7964C11.1679 27.3861 10.9374 26.8297 10.9374 26.2496V25.4293C10.9372 25.0949 10.8603 24.7649 10.7127 24.4649C10.565 24.1648 10.3505 23.9026 10.0857 23.6984C8.65277 22.5825 7.49248 21.1552 6.69259 19.5246C5.8927 17.894 5.47417 16.1029 5.46868 14.2867C5.43314 7.76931 10.6995 2.34431 17.2101 2.18709C18.8143 2.14843 20.41 2.43106 21.9033 3.01836C23.3966 3.60566 24.7574 4.48574 25.9055 5.60682C27.0535 6.7279 27.9658 8.06731 28.5884 9.54623C29.2111 11.0251 29.5317 12.6137 29.5312 14.2183ZM27.3437 14.2183C27.3441 12.9054 27.0818 11.6056 26.5723 10.3955C26.0628 9.18545 25.3163 8.08953 24.3769 7.17228C23.4375 6.25502 22.3241 5.53497 21.1022 5.0545C19.8803 4.57403 18.5746 4.34286 17.262 4.37459C11.93 4.50037 7.62747 8.93963 7.65618 14.2717C7.66108 15.7572 8.00385 17.2223 8.65854 18.5558C9.31324 19.8894 10.2627 21.0565 11.4351 21.9689C11.9621 22.3786 12.3883 22.9034 12.6812 23.5032C12.9741 24.103 13.1259 24.7618 13.1249 25.4293V26.2496H16.4062V20.1396L12.3511 16.0859C12.1459 15.8807 12.0306 15.6023 12.0306 15.3121C12.0306 15.0218 12.1459 14.7435 12.3511 14.5383C12.5563 14.333 12.8347 14.2177 13.1249 14.2177C13.4152 14.2177 13.6935 14.333 13.8988 14.5383L17.4999 18.1408L21.1011 14.5383C21.2027 14.4366 21.3234 14.356 21.4561 14.301C21.5889 14.246 21.7312 14.2177 21.8749 14.2177C22.0186 14.2177 22.161 14.246 22.2937 14.301C22.4265 14.356 22.5471 14.4366 22.6488 14.5383C22.7504 14.6399 22.831 14.7605 22.886 14.8933C22.941 15.0261 22.9693 15.1684 22.9693 15.3121C22.9693 15.4558 22.941 15.5981 22.886 15.7309C22.831 15.8637 22.7504 15.9843 22.6488 16.0859L18.5937 20.1396V26.2496H21.8749V25.4293C21.8761 24.7598 22.0304 24.0995 22.3259 23.4989C22.6214 22.8982 23.0503 22.373 23.5798 21.9635C24.7557 21.0445 25.7061 19.869 26.3584 18.5267C27.0108 17.1844 27.3477 15.7107 27.3437 14.2183Z" fill="#4040FF"/>
</svg>
