<svg width="72" height="72" viewBox="0 0 72 72" fill="none" xmlns="http://www.w3.org/2000/svg">
<mask id="mask0_409_440" style="mask-type:luminance" maskUnits="userSpaceOnUse" x="1" y="1" width="70" height="70">
<path d="M1.94141 1.94141H70.0596V70.0596H1.94141V1.94141Z" fill="white"/>
</mask>
<g mask="url(#mask0_409_440)">
<mask id="mask1_409_440" style="mask-type:luminance" maskUnits="userSpaceOnUse" x="1" y="1" width="70" height="70">
<path d="M36.0005 1.94141C17.1904 1.94141 1.94141 17.1904 1.94141 36.0005C1.94141 54.8105 17.1904 70.0596 36.0005 70.0596C54.8105 70.0596 70.0596 54.8105 70.0596 36.0005C70.0596 17.1904 54.8105 1.94141 36.0005 1.94141Z" fill="white"/>
</mask>
<g mask="url(#mask1_409_440)">
<mask id="mask2_409_440" style="mask-type:luminance" maskUnits="userSpaceOnUse" x="1" y="1" width="70" height="70">
<path d="M70.125 1.875H1.875V70.125H70.125V1.875Z" fill="white"/>
</mask>
<g mask="url(#mask2_409_440)">
<mask id="mask3_409_440" style="mask-type:luminance" maskUnits="userSpaceOnUse" x="1" y="1" width="70" height="70">
<path d="M1.94141 1.94141H70.0596V70.0596H1.94141V1.94141Z" fill="white"/>
</mask>
<g mask="url(#mask3_409_440)">
<mask id="mask4_409_440" style="mask-type:luminance" maskUnits="userSpaceOnUse" x="1" y="1" width="70" height="70">
<path d="M36.0005 1.94141C17.1904 1.94141 1.94141 17.1904 1.94141 36.0005C1.94141 54.8105 17.1904 70.0596 36.0005 70.0596C54.8105 70.0596 70.0596 54.8105 70.0596 36.0005C70.0596 17.1904 54.8105 1.94141 36.0005 1.94141Z" fill="white"/>
</mask>
<g mask="url(#mask4_409_440)">
<path d="M1.94141 1.94141H70.0596V70.0596H1.94141V1.94141Z" fill="#4040FF"/>
</g>
</g>
</g>
</g>
</g>
<path d="M32.0859 23.5244L40.1807 15.4297C40.1807 15.4297 48.2754 7.33496 56.3701 15.4297C64.4648 23.5244 56.3701 31.6191 56.3701 31.6191L45.5771 42.4121C45.5771 42.4121 37.4824 50.5054 29.3877 42.4121C27.8701 40.8931 26.9297 38.8774 26.9297 38.8774L31.4531 34.3599C31.4531 34.3599 31.2715 36.1997 33.4351 38.3647C33.4351 38.3647 37.4824 42.4121 41.5298 38.3647L52.3228 27.5718C52.3228 27.5718 56.3701 23.5244 52.3228 19.4771C48.2754 15.4297 44.228 19.4771 44.228 19.4771L39.1978 24.5073C39.1978 24.5073 36.6958 22.4565 31.5806 24.0298L32.0859 23.5244Z" fill="white"/>
<path d="M39.9702 47.8081L31.8755 55.9028C31.8755 55.9028 23.7822 63.9976 15.6875 55.9028C7.59277 47.8081 15.6875 39.7148 15.6875 39.7148L26.4805 28.9219C26.4805 28.9219 34.5737 20.8271 42.6685 28.9219C44.186 30.4395 45.1265 32.4565 45.1265 32.4565L40.6016 36.9741C40.6016 36.9741 40.7847 35.1328 38.6196 32.9692C38.6196 32.9692 34.5737 28.9219 30.5264 32.9692L19.7334 43.7622C19.7334 43.7622 15.686 47.8081 19.7334 51.8555C23.7808 55.9028 27.8281 51.8555 27.8281 51.8555L32.8584 46.8252C32.8584 46.8252 35.3589 48.8774 40.4756 47.3027L39.9702 47.8081Z" fill="white"/>
</svg>
