<svg xmlns="http://www.w3.org/2000/svg" xmlns:xlink="http://www.w3.org/1999/xlink" width="100" zoomAndPan="magnify" viewBox="0 0 75 74.999997" height="100" preserveAspectRatio="xMidYMid meet" version="1.0"><path fill="#0a66c2" d="M 32.347656 21.503906 L 43.007812 10.839844 C 43.007812 10.839844 53.671875 0.175781 64.335938 10.839844 C 75 21.503906 64.335938 32.167969 64.335938 32.167969 L 50.117188 46.386719 C 50.117188 46.386719 39.453125 57.050781 28.792969 46.386719 C 26.792969 44.386719 25.554688 41.730469 25.554688 41.730469 L 31.511719 35.78125 C 31.511719 35.78125 31.273438 38.203125 34.125 41.054688 C 34.125 41.054688 39.453125 46.386719 44.785156 41.054688 L 59.003906 26.835938 C 59.003906 26.835938 64.335938 21.503906 59.003906 16.171875 C 53.671875 10.839844 48.339844 16.171875 48.339844 16.171875 L 41.714844 22.800781 C 41.714844 22.800781 38.417969 20.097656 31.679688 22.171875 Z M 32.347656 21.503906 " fill-opacity="1" fill-rule="nonzero"/><path fill="#0a66c2" d="M 42.734375 53.496094 L 32.070312 64.160156 C 32.070312 64.160156 21.40625 74.824219 10.742188 64.160156 C 0.078125 53.496094 10.742188 42.832031 10.742188 42.832031 L 24.960938 28.613281 C 24.960938 28.613281 35.625 17.949219 46.289062 28.613281 C 48.289062 30.613281 49.527344 33.269531 49.527344 33.269531 L 43.566406 39.222656 C 43.566406 39.222656 43.804688 36.796875 40.953125 33.945312 C 40.953125 33.945312 35.625 28.613281 30.292969 33.945312 L 16.074219 48.164062 C 16.074219 48.164062 10.742188 53.496094 16.074219 58.828125 C 21.40625 64.160156 26.738281 58.828125 26.738281 58.828125 L 33.363281 52.199219 C 33.363281 52.199219 36.660156 54.902344 43.398438 52.828125 Z M 42.734375 53.496094 " fill-opacity="1" fill-rule="nonzero"/></svg>