<svg xmlns="http://www.w3.org/2000/svg" xmlns:xlink="http://www.w3.org/1999/xlink" width="100" zoomAndPan="magnify" viewBox="0 0 75 74.999997" height="100" preserveAspectRatio="xMidYMid meet" version="1.0"><path fill="#4040ff" d="M 16.40625 31.421875 L 16.40625 25 C 16.40625 13.351562 25.851562 3.90625 37.5 3.90625 C 49.148438 3.90625 58.59375 13.351562 58.59375 25 L 58.59375 31.421875 C 62.078125 31.679688 64.347656 32.335938 66.003906 33.996094 C 68.75 36.742188 68.75 41.160156 68.75 50 C 68.75 58.839844 68.75 63.257812 66.003906 66.003906 C 63.257812 68.75 58.839844 68.75 50 68.75 L 25 68.75 C 16.160156 68.75 11.742188 68.75 8.996094 66.003906 C 6.25 63.257812 6.25 58.839844 6.25 50 C 6.25 41.160156 6.25 36.742188 8.996094 33.996094 C 10.652344 32.335938 12.921875 31.679688 16.40625 31.421875 Z M 21.09375 25 C 21.09375 15.9375 28.4375 8.59375 37.5 8.59375 C 46.5625 8.59375 53.90625 15.9375 53.90625 25 L 53.90625 31.261719 C 52.710938 31.25 51.410156 31.25 50 31.25 L 25 31.25 C 23.589844 31.25 22.289062 31.25 21.09375 31.261719 Z M 21.09375 25 " fill-opacity="1" fill-rule="evenodd"/></svg>