<svg xmlns="http://www.w3.org/2000/svg" xmlns:xlink="http://www.w3.org/1999/xlink" width="500" zoomAndPan="magnify" viewBox="0 0 375 374.999991" height="500" preserveAspectRatio="xMidYMid meet" version="1.0"><path fill="#d1d1ff" d="M 299.019531 336.207031 L 102.433594 336.207031 L 102.433594 173.6875 C 102.433594 167.417969 107.496094 162.355469 113.765625 162.355469 L 299.019531 162.355469 Z M 299.019531 336.207031 " fill-opacity="1" fill-rule="nonzero"/><path fill="#4040ff" d="M 336.703125 332.203125 L 308.335938 332.203125 L 308.335938 164.90625 C 308.335938 161.007812 305.148438 157.820312 301.253906 157.820312 C 297.355469 157.820312 294.167969 161.007812 294.167969 164.90625 L 294.167969 332.203125 L 218.488281 332.203125 C 218.558594 331.425781 218.558594 330.609375 218.558594 329.832031 L 218.558594 252.945312 C 218.558594 246.855469 216.894531 241.082031 213.917969 236.65625 C 210.695312 231.910156 206.09375 229.148438 201.277344 229.148438 L 174.609375 229.148438 C 169.828125 229.148438 165.222656 231.875 161.964844 236.65625 C 158.957031 241.082031 157.328125 246.855469 157.328125 252.945312 L 157.328125 329.832031 C 157.328125 330.648438 157.363281 331.425781 157.398438 332.203125 L 80.902344 332.203125 L 80.902344 164.90625 C 80.902344 161.007812 77.714844 157.820312 73.816406 157.820312 C 69.921875 157.820312 66.734375 161.007812 66.734375 164.90625 L 66.734375 332.203125 L 38.507812 332.203125 C 34.71875 332.203125 31.640625 335.285156 31.640625 339.074219 C 31.640625 342.863281 34.71875 345.945312 38.507812 345.945312 L 336.667969 345.945312 C 340.457031 345.945312 343.539062 342.863281 343.539062 339.074219 C 343.539062 335.285156 340.457031 332.203125 336.703125 332.203125 Z M 171.988281 109.691406 L 168.234375 132.710938 L 187.890625 121.839844 L 187.960938 121.839844 L 207.617188 132.710938 L 203.863281 109.691406 C 203.863281 109.65625 203.863281 109.621094 203.898438 109.621094 L 219.796875 93.332031 L 197.804688 89.96875 C 197.769531 89.96875 197.769531 89.933594 197.734375 89.933594 L 187.890625 69 L 178.042969 89.933594 C 178.042969 89.96875 178.007812 89.96875 177.972656 89.96875 L 155.980469 93.332031 L 171.882812 109.621094 C 171.988281 109.621094 172.023438 109.65625 171.988281 109.691406 Z M 171.988281 109.691406 " fill-opacity="1" fill-rule="nonzero"/><path fill="#4040ff" d="M 69.710938 149.179688 L 304.898438 149.179688 C 315.628906 149.179688 324.378906 140.433594 324.378906 129.703125 L 324.378906 47.609375 C 324.378906 36.878906 315.628906 28.132812 304.898438 28.132812 L 273.167969 28.132812 L 273.167969 53.277344 L 247.492188 53.277344 L 247.492188 28.132812 L 200.957031 28.132812 L 200.957031 53.277344 L 175.28125 53.277344 L 175.28125 28.132812 L 128.746094 28.132812 L 128.746094 53.277344 L 103.070312 53.277344 L 103.070312 28.132812 L 69.710938 28.132812 C 58.980469 28.132812 50.230469 36.878906 50.230469 47.609375 L 50.230469 129.703125 C 50.230469 140.433594 58.980469 149.179688 69.710938 149.179688 Z M 64.398438 47.609375 C 64.398438 44.671875 66.769531 42.296875 69.710938 42.296875 L 88.90625 42.296875 L 88.90625 67.441406 L 142.914062 67.441406 L 142.914062 42.296875 L 161.117188 42.296875 L 161.117188 67.441406 L 215.125 67.441406 L 215.125 42.296875 L 233.328125 42.296875 L 233.328125 67.441406 L 287.335938 67.441406 L 287.335938 42.296875 L 304.898438 42.296875 C 307.839844 42.296875 310.210938 44.671875 310.210938 47.609375 L 310.210938 129.703125 C 310.210938 132.640625 307.839844 135.015625 304.898438 135.015625 L 69.710938 135.015625 C 66.769531 135.015625 64.398438 132.640625 64.398438 129.703125 Z M 64.398438 47.609375 " fill-opacity="1" fill-rule="nonzero"/></svg>