<svg xmlns="http://www.w3.org/2000/svg" xmlns:xlink="http://www.w3.org/1999/xlink" width="500" zoomAndPan="magnify" viewBox="0 0 375 374.999991" height="500" preserveAspectRatio="xMidYMid meet" version="1.0"><path fill="#d1d1ff" d="M 72.96875 225.898438 L 142.382812 55.8125 L 52.722656 82.027344 L 60.179688 164.621094 Z M 318.613281 76.878906 L 227.496094 321.777344 L 277.585938 278.117188 L 328.0625 114.851562 L 319.609375 87.464844 Z M 318.613281 76.878906 " fill-opacity="1" fill-rule="nonzero"/><path fill="#4040ff" d="M 186.46875 123.449219 C 171.582031 123.449219 159.46875 135.988281 159.46875 151.441406 C 159.46875 166.859375 171.582031 179.433594 186.46875 179.433594 C 201.351562 179.433594 213.464844 166.894531 213.464844 151.441406 C 213.464844 135.988281 201.351562 123.449219 186.46875 123.449219 Z M 186.46875 123.449219 " fill-opacity="1" fill-rule="nonzero"/><path fill="#4040ff" d="M 328.667969 80.289062 L 328.347656 74.355469 L 322.453125 73.609375 C 281.597656 68.492188 223.304688 49.417969 190.980469 22.808594 L 186.46875 19.117188 L 181.957031 22.808594 C 147.960938 50.695312 89.984375 68.707031 50.484375 73.644531 L 44.585938 74.390625 L 44.265625 80.324219 C 44.125 82.632812 41.351562 137.339844 56.804688 198.226562 C 65.9375 234.246094 79.648438 264.832031 97.515625 289.128906 C 120.109375 319.894531 149.378906 340.570312 184.550781 350.621094 L 186.503906 351.191406 L 188.457031 350.621094 C 223.589844 340.570312 252.859375 319.894531 275.488281 289.128906 C 293.359375 264.832031 307.035156 234.246094 316.199219 198.226562 C 331.582031 137.339844 328.773438 82.597656 328.667969 80.289062 Z M 302.34375 194.671875 C 282.84375 271.476562 243.875 319.148438 186.46875 336.339844 C 129.132812 319.148438 90.199219 271.617188 70.660156 194.992188 C 58.511719 147.390625 58.015625 102.523438 58.296875 86.894531 C 97.730469 80.960938 151.691406 63.589844 186.46875 37.339844 C 221.101562 63.589844 275.132812 80.960938 314.671875 86.894531 C 314.921875 102.488281 314.421875 147.105469 302.34375 194.671875 Z M 302.34375 194.671875 " fill-opacity="1" fill-rule="nonzero"/><path fill="#4040ff" d="M 213.179688 266.21875 L 186.679688 242.273438 L 159.753906 266.324219 L 159.753906 216.164062 L 159.71875 216.164062 L 143.695312 215.027344 L 143.695312 299.253906 L 186.644531 262.59375 L 229.664062 298.898438 L 229.699219 214.78125 L 213.179688 216.164062 Z M 186.46875 91.902344 C 154.816406 91.902344 129.0625 118.617188 129.0625 151.441406 C 129.0625 184.265625 154.816406 210.980469 186.46875 210.980469 C 218.117188 210.980469 243.875 184.265625 243.875 151.441406 C 243.875 118.617188 218.117188 91.902344 186.46875 91.902344 Z M 186.46875 196.734375 C 162.667969 196.734375 143.269531 176.414062 143.269531 151.40625 C 143.269531 126.433594 162.632812 106.078125 186.46875 106.078125 C 210.304688 106.078125 229.664062 126.398438 229.664062 151.40625 C 229.664062 176.414062 210.269531 196.734375 186.46875 196.734375 Z M 186.46875 196.734375 " fill-opacity="1" fill-rule="nonzero"/></svg>