<svg xmlns="http://www.w3.org/2000/svg" xmlns:xlink="http://www.w3.org/1999/xlink" width="500" zoomAndPan="magnify" viewBox="0 0 375 374.999991" height="500" preserveAspectRatio="xMidYMid meet" version="1.0"><path fill="#4040ff" d="M 208.003906 332.382812 L 86.921875 332.382812 L 86.921875 55.402344 L 121.34375 55.402344 C 124.355469 61.671875 130.730469 65.992188 138.097656 65.992188 L 236.9375 65.992188 C 244.304688 65.992188 250.714844 61.636719 253.691406 55.402344 L 287.9375 55.402344 L 287.9375 217.636719 C 287.9375 221.535156 291.125 224.722656 295.019531 224.722656 C 298.914062 224.722656 302.101562 221.535156 302.101562 217.636719 L 302.101562 52.320312 C 302.101562 46.195312 297.039062 41.234375 290.839844 41.234375 L 254.46875 41.234375 C 251.917969 34.046875 245.011719 28.839844 236.9375 28.839844 L 138.097656 28.839844 C 130.058594 28.839844 123.152344 34.046875 120.566406 41.234375 L 83.980469 41.234375 C 77.785156 41.234375 72.71875 46.195312 72.71875 52.320312 L 72.71875 335.5 C 72.71875 341.625 77.785156 346.582031 83.980469 346.582031 L 208.003906 346.582031 C 211.902344 346.582031 215.089844 343.394531 215.089844 339.5 C 215.089844 335.605469 211.9375 332.382812 208.003906 332.382812 Z M 208.003906 332.382812 " fill-opacity="1" fill-rule="nonzero"/><path fill="#4040ff" d="M 256.347656 149.464844 C 256.347656 145.570312 253.160156 142.382812 249.261719 142.382812 L 119.183594 142.382812 C 117.273438 140.503906 114.652344 139.335938 111.710938 139.335938 C 105.832031 139.335938 101.085938 144.082031 101.085938 149.960938 C 101.085938 155.839844 105.832031 160.585938 111.710938 160.585938 C 115.078125 160.585938 118.085938 159.027344 120.035156 156.546875 L 249.261719 156.546875 C 253.160156 156.546875 256.347656 153.359375 256.347656 149.464844 Z M 256.347656 198.160156 C 256.347656 194.265625 253.160156 191.078125 249.261719 191.078125 L 120.246094 191.078125 C 118.300781 188.457031 115.21875 186.792969 111.710938 186.792969 C 105.832031 186.792969 101.085938 191.535156 101.085938 197.414062 C 101.085938 203.292969 105.832031 208.039062 111.710938 208.039062 C 114.472656 208.039062 116.988281 206.976562 118.902344 205.242188 L 249.261719 205.242188 C 253.160156 205.242188 256.347656 202.054688 256.347656 198.160156 Z M 119.539062 240.125 L 119.21875 240.125 C 117.308594 238.214844 114.652344 237.007812 111.710938 237.007812 C 105.832031 237.007812 101.085938 241.753906 101.085938 247.632812 C 101.085938 253.511719 105.832031 258.257812 111.710938 258.257812 C 115.078125 258.257812 118.050781 256.699219 120 254.292969 L 225.253906 254.292969 C 229.148438 254.292969 232.335938 251.105469 232.335938 247.210938 C 232.335938 243.3125 229.148438 240.125 225.253906 240.125 Z M 342.6875 193.660156 C 339.21875 191.855469 334.933594 193.203125 333.125 196.671875 L 264.386719 328.804688 L 213.53125 300.96875 C 210.128906 299.09375 205.773438 300.367188 203.933594 303.765625 C 202.054688 307.167969 203.332031 311.523438 206.730469 313.363281 L 264.136719 344.8125 C 267.539062 346.691406 271.894531 345.414062 273.734375 342.015625 C 274.054688 341.414062 274.300781 340.773438 274.441406 340.136719 L 345.699219 203.257812 C 347.503906 199.789062 346.160156 195.46875 342.6875 193.660156 Z M 342.6875 193.660156 " fill-opacity="1" fill-rule="nonzero"/><path fill="#d1d1ff" d="M 262.507812 124.851562 L 110.578125 124.851562 C 105.335938 124.851562 101.085938 120.601562 101.085938 115.359375 L 101.085938 86.53125 C 101.085938 81.289062 105.335938 77.039062 110.578125 77.039062 L 262.507812 77.039062 C 267.75 77.039062 272 81.289062 272 86.53125 L 272 115.359375 C 272 120.601562 267.75 124.851562 262.507812 124.851562 Z M 262.507812 124.851562 " fill-opacity="1" fill-rule="nonzero"/></svg>