<svg width="15" height="15" viewBox="0 0 15 15" fill="none" xmlns="http://www.w3.org/2000/svg">
<path d="M1.46629 1.46541C2.05445 0.877217 3.00805 0.877218 3.59621 1.46541L13.5358 11.4056C14.124 11.9938 14.124 12.9475 13.5358 13.5357C12.9477 14.1239 11.9941 14.1239 11.4059 13.5357L1.46629 3.59546C0.87813 3.00726 0.878128 2.05361 1.46629 1.46541Z" fill="#715A4A"/>
<path d="M1.46535 13.5357C0.877189 12.9475 0.87719 11.9939 1.46535 11.4057L11.405 1.46547C11.9931 0.877273 12.9467 0.877273 13.5349 1.46547V1.46547C14.1231 2.05366 14.1231 3.00732 13.5349 3.59551L3.59527 13.5357C3.00711 14.1239 2.05351 14.1239 1.46535 13.5357V13.5357Z" fill="#715A4A"/>
</svg>
